<svg xmlns="http://www.w3.org/2000/svg" viewBox="0 0 500 500"><g id="freepik--background-complete--inject-18"><polygon points="308.23 376.28 162.19 376.28 162.89 327.12 308.93 327.12 308.23 376.28" style="fill:#f5f5f5"></polygon><path d="M173.61,369.07c-.07,0-.14-8.7-.14-19.43s.07-19.44.14-19.44.14,8.7.14,19.44S173.69,369.07,173.61,369.07Z" style="fill:#e0e0e0"></path><path d="M170.61,333.48a21,21,0,0,1-4.84,0,21,21,0,0,1,4.84,0Z" style="fill:#e0e0e0"></path><path d="M170.61,338.6a21,21,0,0,1-4.84,0,21,21,0,0,1,4.84,0Z" style="fill:#e0e0e0"></path><path d="M170.61,343.72a21,21,0,0,1-4.84,0,22.59,22.59,0,0,1,4.84,0Z" style="fill:#e0e0e0"></path><path d="M170.61,348.85a21,21,0,0,1-4.84,0,21,21,0,0,1,4.84,0Z" style="fill:#e0e0e0"></path><path d="M170.61,354a21,21,0,0,1-4.84,0,21,21,0,0,1,4.84,0Z" style="fill:#e0e0e0"></path><path d="M170.61,359.09a21,21,0,0,1-4.84,0,21,21,0,0,1,4.84,0Z" style="fill:#e0e0e0"></path><path d="M170.61,364.21a21,21,0,0,1-4.84,0,21,21,0,0,1,4.84,0Z" style="fill:#e0e0e0"></path><path d="M170.61,369.33a21,21,0,0,1-4.84,0,21,21,0,0,1,4.84,0Z" style="fill:#e0e0e0"></path><path d="M190,333.18c0,.08-2.81.14-6.28.14s-6.28-.06-6.28-.14,2.81-.14,6.28-.14S190,333.1,190,333.18Z" style="fill:#e0e0e0"></path><path d="M207.48,343.72c0,.08-5.26.14-11.75.14S184,343.8,184,343.72s5.26-.13,11.74-.13S207.48,343.65,207.48,343.72Z" style="fill:#e0e0e0"></path><path d="M234.63,343.72c0,.08-5.26.14-11.74.14s-11.74-.06-11.74-.14,5.25-.13,11.74-.13S234.63,343.65,234.63,343.72Z" style="fill:#e0e0e0"></path><path d="M224.25,348.85c0,.07-7.75.14-17.3.14s-17.31-.07-17.31-.14,7.75-.14,17.31-.14S224.25,348.77,224.25,348.85Z" style="fill:#e0e0e0"></path><path d="M224.25,354c0,.08-7.75.14-17.3.14s-17.31-.06-17.31-.14,7.75-.14,17.31-.14S224.25,353.89,224.25,354Z" style="fill:#e0e0e0"></path><path d="M248.08,369.33c0,.08-7.75.14-17.31.14s-17.3-.06-17.3-.14,7.74-.14,17.3-.14S248.08,369.25,248.08,369.33Z" style="fill:#e0e0e0"></path><path d="M237.8,359.09c0,.08-7.75.14-17.31.14s-17.3-.06-17.3-.14,7.74-.14,17.3-.14S237.8,359,237.8,359.09Z" style="fill:#e0e0e0"></path><path d="M280.09,359.09c0,.08-7.75.14-17.31.14s-17.3-.06-17.3-.14,7.75-.14,17.3-.14S280.09,359,280.09,359.09Z" style="fill:#e0e0e0"></path><path d="M265.38,348.85c0,.07-7.75.14-17.3.14s-17.31-.07-17.31-.14,7.75-.14,17.31-.14S265.38,348.77,265.38,348.85Z" style="fill:#fafafa"></path><path d="M289.29,369.33c0,.08-7.75.14-17.31.14s-17.3-.06-17.3-.14,7.74-.14,17.3-.14S289.29,369.25,289.29,369.33Z" style="fill:#fafafa"></path><path d="M284.51,354c0,.08-12,.14-26.87.14s-26.87-.06-26.87-.14,12-.14,26.87-.14S284.51,353.89,284.51,354Z" style="fill:#fff"></path><path d="M190,338.6c0,.08-2.81.14-6.28.14s-6.28-.06-6.28-.14,2.81-.14,6.28-.14S190,338.53,190,338.6Z" style="fill:#fafafa"></path><path d="M196.21,359.09c0,.08-2.81.14-6.27.14s-6.28-.06-6.28-.14,2.81-.14,6.28-.14S196.21,359,196.21,359.09Z" style="fill:#fafafa"></path><path d="M296.81,359.09c0,.08-2.81.14-6.28.14s-6.27-.06-6.27-.14,2.81-.14,6.27-.14S296.81,359,296.81,359.09Z" style="fill:#e0e0e0"></path><path d="M182.67,110.05c0-.25.76-.45,1.7-.45-.89.89-.25.25-.44.45h0v-.32l0-.32a3.49,3.49,0,0,1,.1-.54c.08-.31.19-.5.31-.5s.23.19.31.5a3.49,3.49,0,0,1,.1.54c0,.13,0,.24,0,.32V110h0l-.44.44C183.43,110.49,182.67,110.29,182.67,110.05Z" style="fill:#e0e0e0"></path><path d="M175.85,110.05c0-.25.76-.45,1.7-.45s1.71.2,1.71.45-.77.44-1.71.44S175.85,110.29,175.85,110.05Z" style="fill:#e0e0e0"></path><path d="M169,110.05c0-.25.76-.45,1.7-.45s1.71.2,1.71.45-.76.44-1.71.44S169,110.29,169,110.05Z" style="fill:#e0e0e0"></path><path d="M162.21,110.05c0-.25.76-.45,1.71-.45s1.7.2,1.7.45-.76.44-1.7.44S162.21,110.29,162.21,110.05Z" style="fill:#e0e0e0"></path><path d="M155.39,110.05c0-.25.77-.45,1.71-.45s1.7.2,1.7.45-.76.44-1.7.44S155.39,110.29,155.39,110.05Z" style="fill:#e0e0e0"></path><path d="M148.57,110.05c0-.25.77-.45,1.71-.45s1.7.2,1.7.45-.76.44-1.7.44S148.57,110.29,148.57,110.05Z" style="fill:#e0e0e0"></path><path d="M141.76,110.05c0-.25.76-.45,1.7-.45s1.71.2,1.71.45-.77.44-1.71.44S141.76,110.29,141.76,110.05Z" style="fill:#e0e0e0"></path><path d="M134.94,110.05c0-.25.76-.45,1.7-.45s1.71.2,1.71.45-.77.44-1.71.44S134.94,110.29,134.94,110.05Z" style="fill:#e0e0e0"></path><path d="M128.12,110.05c0-.25.76-.45,1.7-.45s1.71.2,1.71.45-.76.44-1.71.44S128.12,110.29,128.12,110.05Z" style="fill:#e0e0e0"></path><path d="M121.3,110.05c0-.25.76-.45,1.71-.45s1.7.2,1.7.45-.76.44-1.7.44S121.3,110.29,121.3,110.05Z" style="fill:#e0e0e0"></path><path d="M114.48,110.05c0-.25.77-.45,1.71-.45s1.7.2,1.7.45-.76.44-1.7.44S114.48,110.29,114.48,110.05Z" style="fill:#e0e0e0"></path><path d="M107.66,110.05c0-.25.77-.45,1.71-.45s1.7.2,1.7.45-.76.44-1.7.44S107.66,110.29,107.66,110.05Z" style="fill:#e0e0e0"></path><path d="M100.85,110.05c0-.25.76-.45,1.7-.45s1.71.2,1.71.45-.77.44-1.71.44S100.85,110.29,100.85,110.05Z" style="fill:#e0e0e0"></path><path d="M94,110.05c0-.25.76-.45,1.7-.45s1.71.2,1.71.45-.77.44-1.71.44S94,110.29,94,110.05Z" style="fill:#e0e0e0"></path><ellipse cx="88.91" cy="110.05" rx="1.7" ry="0.44" style="fill:#e0e0e0"></ellipse><path d="M82.1,108.34c.24,0,.44.76.44,1.71-.89-.89-.24-.25-.44-.45h.34l.32,0a3.57,3.57,0,0,1,.54.09c.31.08.5.19.5.32s-.19.23-.5.31a3.57,3.57,0,0,1-.54.09l-.32,0H82.1l-.45-.44C81.65,109.1,81.85,108.34,82.1,108.34Z" style="fill:#e0e0e0"></path><path d="M82.1,101.57c.24,0,.44.75.44,1.69s-.2,1.69-.44,1.69-.45-.75-.45-1.69S81.85,101.57,82.1,101.57Z" style="fill:#e0e0e0"></path><path d="M82.1,94.79c.24,0,.44.76.44,1.69s-.2,1.7-.44,1.7-.45-.76-.45-1.7S81.85,94.79,82.1,94.79Z" style="fill:#e0e0e0"></path><path d="M82.1,88c.24,0,.44.76.44,1.7s-.2,1.69-.44,1.69-.45-.76-.45-1.69S81.85,88,82.1,88Z" style="fill:#e0e0e0"></path><path d="M82.1,81.24c.24,0,.44.76.44,1.69s-.2,1.7-.44,1.7-.45-.76-.45-1.7S81.85,81.24,82.1,81.24Z" style="fill:#e0e0e0"></path><path d="M82.1,74.46c.24,0,.44.76.44,1.69s-.2,1.7-.44,1.7-.45-.76-.45-1.7S81.85,74.46,82.1,74.46Z" style="fill:#e0e0e0"></path><path d="M82.1,67.68c.24,0,.44.76.44,1.7s-.2,1.69-.44,1.69-.45-.76-.45-1.69S81.85,67.68,82.1,67.68Z" style="fill:#e0e0e0"></path><path d="M82.1,60.91c.24,0,.44.76.44,1.69s-.2,1.7-.44,1.7-.45-.76-.45-1.7S81.85,60.91,82.1,60.91Z" style="fill:#e0e0e0"></path><path d="M82.1,54.13c.24,0,.44.76.44,1.7s-.2,1.69-.44,1.69-.45-.76-.45-1.69S81.85,54.13,82.1,54.13Z" style="fill:#e0e0e0"></path><path d="M83.8,49c0,.25-.76.44-1.7.44l.44-.44h0v.32c0,.09,0,.19,0,.32a5.53,5.53,0,0,1-.1.55c-.08.3-.19.49-.31.49s-.24-.19-.32-.49a3.71,3.71,0,0,1-.09-.55l0-.32v-.32h0l.45-.44C83,48.6,83.8,48.8,83.8,49Z" style="fill:#e0e0e0"></path><path d="M90.62,49c0,.25-.76.44-1.71.44s-1.7-.19-1.7-.44.76-.44,1.7-.44S90.62,48.8,90.62,49Z" style="fill:#e0e0e0"></path><path d="M97.44,49c0,.25-.77.44-1.71.44S94,49.29,94,49s.76-.44,1.7-.44S97.44,48.8,97.44,49Z" style="fill:#e0e0e0"></path><path d="M104.26,49c0,.25-.77.44-1.71.44s-1.7-.19-1.7-.44.76-.44,1.7-.44S104.26,48.8,104.26,49Z" style="fill:#e0e0e0"></path><path d="M111.07,49c0,.25-.76.44-1.7.44s-1.71-.19-1.71-.44.77-.44,1.71-.44S111.07,48.8,111.07,49Z" style="fill:#e0e0e0"></path><path d="M117.89,49c0,.25-.76.44-1.7.44s-1.71-.19-1.71-.44.77-.44,1.71-.44S117.89,48.8,117.89,49Z" style="fill:#e0e0e0"></path><path d="M124.71,49c0,.25-.76.44-1.7.44s-1.71-.19-1.71-.44.76-.44,1.71-.44S124.71,48.8,124.71,49Z" style="fill:#e0e0e0"></path><path d="M131.53,49c0,.25-.76.44-1.71.44s-1.7-.19-1.7-.44.76-.44,1.7-.44S131.53,48.8,131.53,49Z" style="fill:#e0e0e0"></path><path d="M138.35,49c0,.25-.77.44-1.71.44s-1.7-.19-1.7-.44.76-.44,1.7-.44S138.35,48.8,138.35,49Z" style="fill:#e0e0e0"></path><path d="M145.17,49c0,.25-.77.44-1.71.44s-1.7-.19-1.7-.44.76-.44,1.7-.44S145.17,48.8,145.17,49Z" style="fill:#e0e0e0"></path><path d="M152,49c0,.25-.76.44-1.7.44s-1.71-.19-1.71-.44.77-.44,1.71-.44S152,48.8,152,49Z" style="fill:#e0e0e0"></path><path d="M158.8,49c0,.25-.76.44-1.7.44s-1.71-.19-1.71-.44.77-.44,1.71-.44S158.8,48.8,158.8,49Z" style="fill:#e0e0e0"></path><path d="M165.62,49c0,.25-.76.44-1.7.44s-1.71-.19-1.71-.44.76-.44,1.71-.44S165.62,48.8,165.62,49Z" style="fill:#e0e0e0"></path><path d="M172.44,49c0,.25-.76.44-1.71.44S169,49.29,169,49s.76-.44,1.7-.44S172.44,48.8,172.44,49Z" style="fill:#e0e0e0"></path><path d="M179.26,49c0,.25-.77.44-1.71.44s-1.7-.19-1.7-.44.76-.44,1.7-.44S179.26,48.8,179.26,49Z" style="fill:#e0e0e0"></path><path d="M184.37,50.74c-.25,0-.44-.76-.44-1.7.88.89.24.25.44.44H184l-.32,0a3.63,3.63,0,0,1-.55-.1c-.3-.08-.49-.19-.49-.31s.19-.23.49-.31a3.63,3.63,0,0,1,.55-.1l.32,0h.34c.2.19-.44-.45.44.44C184.81,50,184.61,50.74,184.37,50.74Z" style="fill:#e0e0e0"></path><path d="M184.37,57.52c-.25,0-.44-.76-.44-1.69s.19-1.7.44-1.7.44.76.44,1.7S184.61,57.52,184.37,57.52Z" style="fill:#e0e0e0"></path><path d="M184.37,64.3c-.25,0-.44-.76-.44-1.7s.19-1.69.44-1.69.44.76.44,1.69S184.61,64.3,184.37,64.3Z" style="fill:#e0e0e0"></path><path d="M184.37,71.07c-.25,0-.44-.76-.44-1.69s.19-1.7.44-1.7.44.76.44,1.7S184.61,71.07,184.37,71.07Z" style="fill:#e0e0e0"></path><path d="M184.37,77.85c-.25,0-.44-.76-.44-1.69s.19-1.7.44-1.7.44.76.44,1.7S184.61,77.85,184.37,77.85Z" style="fill:#e0e0e0"></path><path d="M184.37,84.63c-.25,0-.44-.76-.44-1.7s.19-1.69.44-1.69.44.76.44,1.69S184.61,84.63,184.37,84.63Z" style="fill:#e0e0e0"></path><path d="M184.37,91.4c-.25,0-.44-.76-.44-1.69s.19-1.7.44-1.7.44.76.44,1.7S184.61,91.4,184.37,91.4Z" style="fill:#e0e0e0"></path><path d="M184.37,98.18c-.25,0-.44-.76-.44-1.7s.19-1.69.44-1.69.44.76.44,1.69S184.61,98.18,184.37,98.18Z" style="fill:#e0e0e0"></path><path d="M184.37,105c-.25,0-.44-.75-.44-1.69s.19-1.69.44-1.69.44.75.44,1.69S184.61,105,184.37,105Z" style="fill:#e0e0e0"></path><rect x="79.66" y="107.11" width="4.88" height="4.88" style="fill:#e0e0e0"></rect><rect x="79.66" y="46.6" width="4.88" height="4.88" style="fill:#e0e0e0"></rect><rect x="181.93" y="46.6" width="4.88" height="4.88" style="fill:#e0e0e0"></rect><rect x="181.93" y="106.89" width="4.88" height="4.88" style="fill:#e0e0e0"></rect><rect x="130.79" y="106.89" width="4.88" height="4.88" style="fill:#e0e0e0"></rect><rect x="130.79" y="46.6" width="4.88" height="4.88" style="fill:#e0e0e0"></rect><rect x="79.66" y="77.1" width="4.88" height="4.88" style="fill:#e0e0e0"></rect><rect x="181.93" y="77.1" width="4.88" height="4.88" style="fill:#e0e0e0"></rect><path d="M380.22,292.19c0-.24.76-.44,1.7-.44l-.44.44h0v-.32l0-.32a3.49,3.49,0,0,1,.1-.54c.08-.31.19-.5.31-.5s.23.19.31.5a3.49,3.49,0,0,1,.1.54c0,.13,0,.23,0,.32v.32h0c-.19.2.45-.44-.44.45C381,292.64,380.22,292.44,380.22,292.19Z" style="fill:#e0e0e0"></path><path d="M373.4,292.19c0-.24.76-.44,1.7-.44s1.71.2,1.71.44-.77.45-1.71.45S373.4,292.44,373.4,292.19Z" style="fill:#e0e0e0"></path><path d="M366.58,292.19c0-.24.76-.44,1.7-.44s1.71.2,1.71.44-.76.45-1.71.45S366.58,292.44,366.58,292.19Z" style="fill:#e0e0e0"></path><path d="M359.76,292.19c0-.24.77-.44,1.71-.44s1.7.2,1.7.44-.76.45-1.7.45S359.76,292.44,359.76,292.19Z" style="fill:#e0e0e0"></path><path d="M352.94,292.19c0-.24.77-.44,1.71-.44s1.7.2,1.7.44-.76.45-1.7.45S352.94,292.44,352.94,292.19Z" style="fill:#e0e0e0"></path><path d="M346.13,292.19c0-.24.76-.44,1.7-.44s1.7.2,1.7.44-.76.45-1.7.45S346.13,292.44,346.13,292.19Z" style="fill:#e0e0e0"></path><path d="M339.31,292.19c0-.24.76-.44,1.7-.44s1.71.2,1.71.44-.77.45-1.71.45S339.31,292.44,339.31,292.19Z" style="fill:#e0e0e0"></path><path d="M332.49,292.19c0-.24.76-.44,1.7-.44s1.71.2,1.71.44-.77.45-1.71.45S332.49,292.44,332.49,292.19Z" style="fill:#e0e0e0"></path><path d="M325.67,292.19c0-.24.76-.44,1.71-.44s1.7.2,1.7.44-.76.45-1.7.45S325.67,292.44,325.67,292.19Z" style="fill:#e0e0e0"></path><path d="M318.85,292.19c0-.24.77-.44,1.71-.44s1.7.2,1.7.44-.76.45-1.7.45S318.85,292.44,318.85,292.19Z" style="fill:#e0e0e0"></path><path d="M312,292.19c0-.24.77-.44,1.71-.44s1.7.2,1.7.44-.76.45-1.7.45S312,292.44,312,292.19Z" style="fill:#e0e0e0"></path><path d="M305.22,292.19c0-.24.76-.44,1.7-.44s1.7.2,1.7.44-.76.45-1.7.45S305.22,292.44,305.22,292.19Z" style="fill:#e0e0e0"></path><path d="M298.4,292.19c0-.24.76-.44,1.7-.44s1.71.2,1.71.44-.77.45-1.71.45S298.4,292.44,298.4,292.19Z" style="fill:#e0e0e0"></path><path d="M291.58,292.19c0-.24.76-.44,1.7-.44s1.71.2,1.71.44-.76.45-1.71.45S291.58,292.44,291.58,292.19Z" style="fill:#e0e0e0"></path><ellipse cx="286.47" cy="292.19" rx="1.7" ry="0.44" style="fill:#e0e0e0"></ellipse><path d="M279.65,290.49c.24,0,.44.76.44,1.7l-.44-.44H280l.32,0a4.82,4.82,0,0,1,.54.1c.31.08.5.19.5.31s-.19.24-.5.32a3.36,3.36,0,0,1-.54.09l-.32,0h-.34l-.45-.45C279.2,291.25,279.4,290.49,279.65,290.49Z" style="fill:#e0e0e0"></path><path d="M279.65,283.71c.24,0,.44.76.44,1.7s-.2,1.69-.44,1.69-.45-.76-.45-1.69S279.4,283.71,279.65,283.71Z" style="fill:#e0e0e0"></path><path d="M279.65,276.94c.24,0,.44.76.44,1.69s-.2,1.7-.44,1.7-.45-.76-.45-1.7S279.4,276.94,279.65,276.94Z" style="fill:#e0e0e0"></path><path d="M279.65,270.16c.24,0,.44.76.44,1.7s-.2,1.69-.44,1.69-.45-.76-.45-1.69S279.4,270.16,279.65,270.16Z" style="fill:#e0e0e0"></path><path d="M279.65,263.39c.24,0,.44.75.44,1.69s-.2,1.69-.44,1.69-.45-.76-.45-1.69S279.4,263.39,279.65,263.39Z" style="fill:#e0e0e0"></path><path d="M279.65,256.61c.24,0,.44.76.44,1.69s-.2,1.7-.44,1.7-.45-.76-.45-1.7S279.4,256.61,279.65,256.61Z" style="fill:#e0e0e0"></path><path d="M279.65,249.83c.24,0,.44.76.44,1.7s-.2,1.69-.44,1.69-.45-.76-.45-1.69S279.4,249.83,279.65,249.83Z" style="fill:#e0e0e0"></path><path d="M279.65,243.06c.24,0,.44.75.44,1.69s-.2,1.69-.44,1.69-.45-.75-.45-1.69S279.4,243.06,279.65,243.06Z" style="fill:#e0e0e0"></path><path d="M279.65,236.28c.24,0,.44.76.44,1.69s-.2,1.7-.44,1.7-.45-.76-.45-1.7S279.4,236.28,279.65,236.28Z" style="fill:#e0e0e0"></path><path d="M281.35,231.19c0,.24-.76.44-1.7.44l.44-.44h0v.32c0,.09,0,.19,0,.32a4.82,4.82,0,0,1-.1.54c-.08.31-.19.5-.31.5s-.24-.19-.32-.5a3.36,3.36,0,0,1-.09-.54l0-.32v-.32h0l.45-.45C280.59,230.74,281.35,230.94,281.35,231.19Z" style="fill:#e0e0e0"></path><path d="M288.17,231.19c0,.24-.76.44-1.7.44s-1.71-.2-1.71-.44.76-.45,1.71-.45S288.17,230.94,288.17,231.19Z" style="fill:#e0e0e0"></path><path d="M295,231.19c0,.24-.76.44-1.71.44s-1.7-.2-1.7-.44.76-.45,1.7-.45S295,230.94,295,231.19Z" style="fill:#e0e0e0"></path><path d="M301.81,231.19c0,.24-.77.44-1.71.44s-1.7-.2-1.7-.44.76-.45,1.7-.45S301.81,230.94,301.81,231.19Z" style="fill:#e0e0e0"></path><path d="M308.62,231.19c0,.24-.76.44-1.7.44s-1.7-.2-1.7-.44.76-.45,1.7-.45S308.62,230.94,308.62,231.19Z" style="fill:#e0e0e0"></path><path d="M315.44,231.19c0,.24-.76.44-1.7.44s-1.71-.2-1.71-.44.77-.45,1.71-.45S315.44,230.94,315.44,231.19Z" style="fill:#e0e0e0"></path><path d="M322.26,231.19c0,.24-.76.44-1.7.44s-1.71-.2-1.71-.44.77-.45,1.71-.45S322.26,230.94,322.26,231.19Z" style="fill:#e0e0e0"></path><path d="M329.08,231.19c0,.24-.76.44-1.7.44s-1.71-.2-1.71-.44.76-.45,1.71-.45S329.08,230.94,329.08,231.19Z" style="fill:#e0e0e0"></path><path d="M335.9,231.19c0,.24-.77.44-1.71.44s-1.7-.2-1.7-.44.76-.45,1.7-.45S335.9,230.94,335.9,231.19Z" style="fill:#e0e0e0"></path><path d="M342.72,231.19c0,.24-.77.44-1.71.44s-1.7-.2-1.7-.44.76-.45,1.7-.45S342.72,230.94,342.72,231.19Z" style="fill:#e0e0e0"></path><path d="M349.53,231.19c0,.24-.76.44-1.7.44s-1.7-.2-1.7-.44.76-.45,1.7-.45S349.53,230.94,349.53,231.19Z" style="fill:#e0e0e0"></path><path d="M356.35,231.19c0,.24-.76.44-1.7.44s-1.71-.2-1.71-.44.77-.45,1.71-.45S356.35,230.94,356.35,231.19Z" style="fill:#e0e0e0"></path><path d="M363.17,231.19c0,.24-.76.44-1.7.44s-1.71-.2-1.71-.44.77-.45,1.71-.45S363.17,230.94,363.17,231.19Z" style="fill:#e0e0e0"></path><path d="M370,231.19c0,.24-.76.44-1.71.44s-1.7-.2-1.7-.44.76-.45,1.7-.45S370,230.94,370,231.19Z" style="fill:#e0e0e0"></path><path d="M376.81,231.19c0,.24-.77.44-1.71.44s-1.7-.2-1.7-.44.76-.45,1.7-.45S376.81,230.94,376.81,231.19Z" style="fill:#e0e0e0"></path><path d="M381.92,232.89c-.24,0-.44-.76-.44-1.7l.44.44h-.34l-.32,0a4.82,4.82,0,0,1-.54-.1c-.31-.08-.5-.19-.5-.31s.19-.24.5-.32a3.36,3.36,0,0,1,.54-.09l.32,0h.34l.44.45C382.36,232.13,382.17,232.89,381.92,232.89Z" style="fill:#e0e0e0"></path><path d="M381.92,239.67c-.24,0-.44-.76-.44-1.7s.2-1.69.44-1.69.44.76.44,1.69S382.17,239.67,381.92,239.67Z" style="fill:#e0e0e0"></path><path d="M381.92,246.44c-.24,0-.44-.75-.44-1.69s.2-1.69.44-1.69.44.75.44,1.69S382.17,246.44,381.92,246.44Z" style="fill:#e0e0e0"></path><path d="M381.92,253.22c-.24,0-.44-.76-.44-1.69s.2-1.7.44-1.7.44.76.44,1.7S382.17,253.22,381.92,253.22Z" style="fill:#e0e0e0"></path><path d="M381.92,260c-.24,0-.44-.76-.44-1.7s.2-1.69.44-1.69.44.76.44,1.69S382.17,260,381.92,260Z" style="fill:#e0e0e0"></path><path d="M381.92,266.77c-.24,0-.44-.76-.44-1.69s.2-1.69.44-1.69.44.75.44,1.69S382.17,266.77,381.92,266.77Z" style="fill:#e0e0e0"></path><path d="M381.92,273.55c-.24,0-.44-.76-.44-1.69s.2-1.7.44-1.7.44.76.44,1.7S382.17,273.55,381.92,273.55Z" style="fill:#e0e0e0"></path><path d="M381.92,280.33c-.24,0-.44-.76-.44-1.7s.2-1.69.44-1.69.44.76.44,1.69S382.17,280.33,381.92,280.33Z" style="fill:#e0e0e0"></path><path d="M381.92,287.1c-.24,0-.44-.76-.44-1.69s.2-1.7.44-1.7.44.76.44,1.7S382.17,287.1,381.92,287.1Z" style="fill:#e0e0e0"></path><rect x="277.21" y="289.26" width="4.88" height="4.88" style="fill:#e0e0e0"></rect><rect x="277.21" y="228.75" width="4.88" height="4.88" style="fill:#e0e0e0"></rect><rect x="379.48" y="228.75" width="4.88" height="4.88" style="fill:#e0e0e0"></rect><rect x="379.48" y="289.04" width="4.88" height="4.88" style="fill:#e0e0e0"></rect><rect x="328.35" y="289.04" width="4.88" height="4.88" style="fill:#e0e0e0"></rect><rect x="328.35" y="228.75" width="4.88" height="4.88" style="fill:#e0e0e0"></rect><rect x="277.21" y="259.25" width="4.88" height="4.88" style="fill:#e0e0e0"></rect><rect x="379.48" y="259.25" width="4.88" height="4.88" style="fill:#e0e0e0"></rect><path d="M95.1,237.68a3.57,3.57,0,0,1,.55-.63l1.59-1.59c1.35-1.34,3.24-3.17,5.34-5.17l0,0v.27c-2.12-2-4-3.76-5.38-5.07l-1.6-1.56a4.1,4.1,0,0,1-.55-.61,3.25,3.25,0,0,1,.65.5c.45.4,1,.9,1.68,1.48,1.4,1.26,3.33,3,5.45,5l.14.13-.14.14,0,0c-2.1,2-4,3.81-5.41,5.1l-1.67,1.51A4.13,4.13,0,0,1,95.1,237.68Z" style="fill:#e0e0e0"></path><path d="M78.76,223.27a3.84,3.84,0,0,1-.54.62c-.44.43-1,1-1.59,1.6-1.36,1.33-3.25,3.16-5.35,5.17l0,0v-.27c2.12,2,4,3.76,5.38,5.07l1.6,1.57a3.16,3.16,0,0,1,.55.61,6.15,6.15,0,0,1-.65-.51l-1.67-1.48c-1.41-1.26-3.34-3-5.46-5l-.14-.13.14-.14,0,0c2.1-2,4-3.81,5.42-5.09l1.67-1.52A3.67,3.67,0,0,1,78.76,223.27Z" style="fill:#e0e0e0"></path><path d="M83,241.07c-.1,0,1.62-4.86,3.83-10.76s4.08-10.67,4.17-10.64-1.62,4.86-3.83,10.77S83.05,241.11,83,241.07Z" style="fill:#e0e0e0"></path><path d="M113.66,251.38s0-.28,0-.8,0-1.31,0-2.32c0-2,0-5,0-8.78,0-7.56,0-18.37-.08-31.39l.15.15-53.13,0h0l.18-.18c0,15.65,0,30.43,0,43.29l-.16-.16,38.36.08,10.88,0,2.89,0h0l-2.85,0L99,251.47l-38.47.08h-.17v-.17c0-12.86,0-27.64,0-43.29v-.19h.19l53.13,0h.16v.16c0,13.06-.06,23.9-.08,31.48,0,3.77,0,6.72,0,8.75,0,1,0,1.76,0,2.29S113.66,251.38,113.66,251.38Z" style="fill:#e0e0e0"></path><path d="M114.08,214.51c0,.1-12,.19-26.79.19s-26.79-.09-26.79-.19,12-.18,26.79-.18S114.08,214.41,114.08,214.51Z" style="fill:#e0e0e0"></path><path d="M64.86,211.35a.72.72,0,1,1-.71-.72A.71.71,0,0,1,64.86,211.35Z" style="fill:#e0e0e0"></path><path d="M67.47,211.35a.72.72,0,1,1-.71-.72A.71.71,0,0,1,67.47,211.35Z" style="fill:#e0e0e0"></path><circle cx="69.36" cy="211.35" r="0.72" style="fill:#e0e0e0"></circle><path d="M456.83,148s0-.24,0-.69,0-1.12,0-2c0-1.74,0-4.28,0-7.51,0-6.46,0-15.7-.07-26.84l.13.14-45.42,0h0l.16-.16c0,13.38,0,26,0,37l-.15-.14,32.81.07,9.29,0H456l-2.44,0-9.26,0-32.9.07h-.14V148c0-11,0-23.64,0-37v-.15h.16l45.42,0H457V111c0,11.17,0,20.44-.07,26.92,0,3.22,0,5.75,0,7.48,0,.85,0,1.5,0,2S456.83,148,456.83,148Z" style="fill:#e0e0e0"></path><path d="M457.19,116.45c0,.08-10.26.15-22.9.15s-22.91-.07-22.91-.15,10.26-.16,22.91-.16S457.19,116.36,457.19,116.45Z" style="fill:#e0e0e0"></path><path d="M415.11,113.74a.61.61,0,1,1-.61-.61A.61.61,0,0,1,415.11,113.74Z" style="fill:#e0e0e0"></path><path d="M417.34,113.74a.61.61,0,1,1-.61-.61A.61.61,0,0,1,417.34,113.74Z" style="fill:#e0e0e0"></path><circle cx="418.96" cy="113.75" r="0.61" style="fill:#e0e0e0"></circle><path d="M406,457.57c-1.68-1.45-5.43-6-2.54-11.32,1.06-1.95,3.31-2.91,5.35-3.77a21.44,21.44,0,0,0,5.86-3c3.18-2.71,4.06-7.2,6.17-10.81,2.42-4.14,6.94-7.24,11.72-7,5.47.25,10,4.71,12.1,9.81s2.14,10.75,2.18,16.25c0,3-.11,6.47-2.35,8.52-2.05,1.89-5.15,1.92-7.94,1.83l-29.89-.92" style="fill:#f5f5f5"></path><path d="M463.17,375.37H384.56l14.16,84.43a9.44,9.44,0,0,0,6.71,7.52l.28.08c.23.06.46.13.7.18a10.44,10.44,0,0,0,1.6.18v.08l.38-.06h35a10.27,10.27,0,0,0,1.93-.19,9.47,9.47,0,0,0,7.95-8.25l6.82-58.18.31-2.31h0l2.7-23Zm-14.83,53.86h-8.06l.81-24.51h9.35Zm2.88-24.51h7.72l-2.87,24.51h-6.95Zm-23.05,51.67-.49-21.28H439.3l-.71,21.28Zm-12.56-21.28H426.9l.49,21.28H417.27Zm.88,21.28H407c-.9-5.74-2.07-13.21-3.34-21.28h11.15Zm-1.33-27.16-1.91-24.51H426.2l.57,24.51Zm12.39,0L427,404.72h13.33l-.82,24.51Zm-.7-30.38-.53-22.7h14.94l-.76,22.7Zm-.78,0H412.79L411,376.15h14.51Zm-14.06,0H398c-.49-3.14-1-6.1-1.39-8.77-1.47-9.18-2-12.63-2.32-13.93h16Zm.46,5.87,1.9,24.51H402.76q-.58-3.74-1.18-7.52c-.91-5.78-1.82-11.57-2.68-17ZM402,429.23h-7.58l-4.11-24.51h7.83C399.31,412.3,400.64,420.73,402,429.23Zm.93,5.88c1.15,7.36,2.29,14.63,3.33,21.28h-7.29l-3.57-21.28Zm36.47,21.28.71-21.28h7.76L446,456.39Zm1.91-57.54.76-22.7h10.84l-1.94,22.7Zm-47.77-22.7c.31,1.65,1.75,10.57,3.67,22.7h-7.89l-3.8-22.7Zm59.37,80.24H446.8l1.82-21.28h6.76Zm6.75-57.54h-7.91l1.94-22.7h8.63Z" style="fill:#e0e0e0"></path><polygon points="175.77 434.36 175.77 466.51 222.79 466.51 274.66 466.51 274.66 434.36 175.77 434.36" style="fill:#f5f5f5"></polygon><polygon points="171.62 425.37 171.62 434.36 278.12 434.36 278.12 425.37 222.79 425.37 171.62 425.37" style="fill:#ebebeb"></polygon><polygon points="224.87 466.51 274.66 466.51 274.66 434.36 278.12 434.36 278.12 425.37 222.79 425.37 222.79 433.52 224.87 466.51" style="fill:#ebebeb"></polygon><rect x="189.6" y="439.54" width="20.06" height="4.84" style="fill:#e0e0e0"></rect><rect x="187.02" y="450.43" width="25.75" height="10.22" style="fill:#fff"></rect><path d="M344.07,141.14a3.62,3.62,0,0,1,1.58-.18h.53l-.17.17c0-.61.09-1,.17-1s.15.43.17,1v.17h-.71A3.62,3.62,0,0,1,344.07,141.14Z" style="fill:#e0e0e0"></path><path d="M339.86,141.14c0-.1.47-.18,1.05-.18s1,.08,1,.18-.47.18-1,.18S339.86,141.24,339.86,141.14Z" style="fill:#e0e0e0"></path><path d="M335.64,141.14c0-.1.47-.18,1.05-.18s1.06.08,1.06.18-.48.18-1.06.18S335.64,141.24,335.64,141.14Z" style="fill:#e0e0e0"></path><path d="M331.42,141.14c0-.1.47-.18,1.06-.18s1,.08,1,.18-.47.18-1,.18S331.42,141.24,331.42,141.14Z" style="fill:#e0e0e0"></path><path d="M327.2,141.14c0-.1.48-.18,1.06-.18s1.05.08,1.05.18-.47.18-1.05.18S327.2,141.24,327.2,141.14Z" style="fill:#e0e0e0"></path><path d="M323,141.14c0-.1.47-.18,1.05-.18s1.06.08,1.06.18-.48.18-1.06.18S323,141.24,323,141.14Z" style="fill:#e0e0e0"></path><path d="M318.77,141.14c0-.1.47-.18,1.06-.18s1.05.08,1.05.18-.47.18-1.05.18S318.77,141.24,318.77,141.14Z" style="fill:#e0e0e0"></path><path d="M314.55,141.14c0-.1.48-.18,1.06-.18s1.05.08,1.05.18-.47.18-1.05.18S314.55,141.24,314.55,141.14Z" style="fill:#e0e0e0"></path><path d="M310.34,141.14c0-.1.47-.18,1.05-.18s1.06.08,1.06.18-.48.18-1.06.18S310.34,141.24,310.34,141.14Z" style="fill:#e0e0e0"></path><path d="M306.12,141.14c0-.1.47-.18,1.05-.18s1.06.08,1.06.18-.47.18-1.06.18S306.12,141.24,306.12,141.14Z" style="fill:#e0e0e0"></path><path d="M301.9,141.14c0-.1.48-.18,1.06-.18s1.05.08,1.05.18-.47.18-1.05.18S301.9,141.24,301.9,141.14Z" style="fill:#e0e0e0"></path><path d="M297.69,141.14c0-.1.47-.18,1.05-.18s1.05.08,1.05.18-.47.18-1.05.18S297.69,141.24,297.69,141.14Z" style="fill:#e0e0e0"></path><path d="M293.47,141.14c0-.1.47-.18,1-.18s1.06.08,1.06.18-.47.18-1.06.18S293.47,141.24,293.47,141.14Z" style="fill:#e0e0e0"></path><path d="M289.25,141.14c0-.1.47-.18,1.06-.18s1.05.08,1.05.18-.47.18-1.05.18S289.25,141.24,289.25,141.14Z" style="fill:#e0e0e0"></path><path d="M285,141.14c0-.1.47-.18,1-.18s1.05.08,1.05.18-.47.18-1.05.18S285,141.24,285,141.14Z" style="fill:#e0e0e0"></path><path d="M280.82,141.14c0-.1.47-.18,1.05-.18s1.06.08,1.06.18-.47.18-1.06.18S280.82,141.24,280.82,141.14Z" style="fill:#e0e0e0"></path><path d="M276.6,141.14c0-.1.47-.18,1.06-.18s1,.08,1,.18-.47.18-1,.18S276.6,141.24,276.6,141.14Z" style="fill:#e0e0e0"></path><path d="M272.39,141.14c0-.1.47-.18,1.05-.18s1.05.08,1.05.18-.47.18-1.05.18S272.39,141.24,272.39,141.14Z" style="fill:#e0e0e0"></path><path d="M271.07,138.24c.1,0,.18.47.18,1.06s-.08,1-.18,1-.18-.47-.18-1S271,138.24,271.07,138.24Z" style="fill:#e0e0e0"></path><path d="M271.07,134c.1,0,.18.48.18,1.06s-.08,1-.18,1-.18-.47-.18-1S271,134,271.07,134Z" style="fill:#e0e0e0"></path><path d="M271.07,129.81c.1,0,.18.47.18,1.05s-.08,1.06-.18,1.06-.18-.48-.18-1.06S271,129.81,271.07,129.81Z" style="fill:#e0e0e0"></path><path d="M271.07,125.59c.1,0,.18.47.18,1s-.08,1.06-.18,1.06-.18-.47-.18-1.06S271,125.59,271.07,125.59Z" style="fill:#e0e0e0"></path><path d="M271.07,121.37c.1,0,.18.48.18,1.06s-.08,1-.18,1-.18-.47-.18-1S271,121.37,271.07,121.37Z" style="fill:#e0e0e0"></path><path d="M271.07,117.16c.1,0,.18.47.18,1s-.08,1.06-.18,1.06-.18-.48-.18-1.06S271,117.16,271.07,117.16Z" style="fill:#e0e0e0"></path><path d="M271.07,112.94c.1,0,.18.47.18,1s-.08,1.06-.18,1.06-.18-.47-.18-1.06S271,112.94,271.07,112.94Z" style="fill:#e0e0e0"></path><path d="M271.07,108.72c.1,0,.18.47.18,1.06s-.08,1-.18,1-.18-.47-.18-1S271,108.72,271.07,108.72Z" style="fill:#e0e0e0"></path><path d="M271.07,104.51c.1,0,.18.47.18,1s-.08,1-.18,1-.18-.47-.18-1S271,104.51,271.07,104.51Z" style="fill:#e0e0e0"></path><path d="M271.07,100.29c.1,0,.18.47.18,1s-.08,1.06-.18,1.06-.18-.47-.18-1.06S271,100.29,271.07,100.29Z" style="fill:#e0e0e0"></path><path d="M271.07,96.07c.1,0,.18.47.18,1.06s-.08,1.05-.18,1.05-.18-.47-.18-1.05S271,96.07,271.07,96.07Z" style="fill:#e0e0e0"></path><path d="M271.07,91.86c.1,0,.18.47.18,1s-.08,1-.18,1-.18-.47-.18-1S271,91.86,271.07,91.86Z" style="fill:#e0e0e0"></path><path d="M271.07,87.64c.1,0,.18.47.18,1s-.08,1.06-.18,1.06-.18-.47-.18-1.06S271,87.64,271.07,87.64Z" style="fill:#e0e0e0"></path><path d="M271.07,83.42c.1,0,.18.47.18,1.06s-.08,1-.18,1-.18-.47-.18-1S271,83.42,271.07,83.42Z" style="fill:#e0e0e0"></path><path d="M271.07,79.2c.1,0,.18.48.18,1.06s-.08,1-.18,1-.18-.47-.18-1S271,79.2,271.07,79.2Z" style="fill:#e0e0e0"></path><path d="M271.07,75c.1,0,.18.47.18,1.05s-.08,1.06-.18,1.06-.18-.48-.18-1.06S271,75,271.07,75Z" style="fill:#e0e0e0"></path><path d="M271.07,70.77c.1,0,.18.47.18,1.06s-.08,1-.18,1-.18-.47-.18-1S271,70.77,271.07,70.77Z" style="fill:#e0e0e0"></path><path d="M271.07,66.55c.1,0,.18.48.18,1.06s-.08,1-.18,1-.18-.47-.18-1S271,66.55,271.07,66.55Z" style="fill:#e0e0e0"></path><path d="M274.76,66c0,.1-.47.18-1.05.18s-1.06-.08-1.06-.18.48-.18,1.06-.18S274.76,65.93,274.76,66Z" style="fill:#e0e0e0"></path><path d="M279,66c0,.1-.47.18-1.05.18s-1.06-.08-1.06-.18.47-.18,1.06-.18S279,65.93,279,66Z" style="fill:#e0e0e0"></path><path d="M283.2,66c0,.1-.48.18-1.06.18s-1.05-.08-1.05-.18.47-.18,1.05-.18S283.2,65.93,283.2,66Z" style="fill:#e0e0e0"></path><path d="M287.41,66c0,.1-.47.18-1.05.18s-1.06-.08-1.06-.18.48-.18,1.06-.18S287.41,65.93,287.41,66Z" style="fill:#e0e0e0"></path><path d="M291.63,66c0,.1-.47.18-1.05.18s-1.06-.08-1.06-.18.47-.18,1.06-.18S291.63,65.93,291.63,66Z" style="fill:#e0e0e0"></path><path d="M295.85,66c0,.1-.47.18-1.06.18s-1.05-.08-1.05-.18.47-.18,1.05-.18S295.85,65.93,295.85,66Z" style="fill:#e0e0e0"></path><path d="M300.06,66c0,.1-.47.18-1.05.18S298,66.13,298,66s.47-.18,1.05-.18S300.06,65.93,300.06,66Z" style="fill:#e0e0e0"></path><ellipse cx="303.23" cy="66.03" rx="1.05" ry="0.18" style="fill:#e0e0e0"></ellipse><path d="M308.5,66c0,.1-.47.18-1.06.18s-1.05-.08-1.05-.18.47-.18,1.05-.18S308.5,65.93,308.5,66Z" style="fill:#e0e0e0"></path><path d="M312.71,66c0,.1-.47.18-1,.18s-1.05-.08-1.05-.18.47-.18,1.05-.18S312.71,65.93,312.71,66Z" style="fill:#e0e0e0"></path><path d="M316.93,66c0,.1-.47.18-1.05.18s-1.06-.08-1.06-.18.47-.18,1.06-.18S316.93,65.93,316.93,66Z" style="fill:#e0e0e0"></path><path d="M321.15,66c0,.1-.47.18-1.06.18s-1-.08-1-.18.47-.18,1-.18S321.15,65.93,321.15,66Z" style="fill:#e0e0e0"></path><path d="M325.37,66c0,.1-.48.18-1.06.18s-1.05-.08-1.05-.18.47-.18,1.05-.18S325.37,65.93,325.37,66Z" style="fill:#e0e0e0"></path><path d="M329.58,66c0,.1-.47.18-1.05.18s-1.06-.08-1.06-.18.48-.18,1.06-.18S329.58,65.93,329.58,66Z" style="fill:#e0e0e0"></path><path d="M333.8,66c0,.1-.47.18-1.06.18s-1.05-.08-1.05-.18.47-.18,1.05-.18S333.8,65.93,333.8,66Z" style="fill:#e0e0e0"></path><path d="M338,66c0,.1-.48.18-1.06.18s-1-.08-1-.18.47-.18,1-.18S338,65.93,338,66Z" style="fill:#e0e0e0"></path><path d="M342.23,66c0,.1-.47.18-1.05.18s-1.06-.08-1.06-.18.48-.18,1.06-.18S342.23,65.93,342.23,66Z" style="fill:#e0e0e0"></path><path d="M346.18,66.3c-.05,0-.09-.1-.12-.27l.12.12a4.11,4.11,0,0,1-.78.06c-.59,0-1.06-.08-1.06-.18s.47-.18,1.06-.18a4.11,4.11,0,0,1,.78.06l.14,0,0,.09C346.27,66.2,346.23,66.3,346.18,66.3Z" style="fill:#e0e0e0"></path><path d="M346.18,70.52c-.1,0-.18-.48-.18-1.06s.08-1,.18-1,.18.47.18,1S346.28,70.52,346.18,70.52Z" style="fill:#e0e0e0"></path><path d="M346.18,74.73c-.1,0-.18-.47-.18-1s.08-1.05.18-1.05.18.47.18,1.05S346.28,74.73,346.18,74.73Z" style="fill:#e0e0e0"></path><path d="M346.18,79c-.1,0-.18-.47-.18-1s.08-1.06.18-1.06.18.47.18,1.06S346.28,79,346.18,79Z" style="fill:#e0e0e0"></path><path d="M346.18,83.17c-.1,0-.18-.47-.18-1.06s.08-1,.18-1,.18.47.18,1S346.28,83.17,346.18,83.17Z" style="fill:#e0e0e0"></path><path d="M346.18,87.38c-.1,0-.18-.47-.18-1s.08-1,.18-1,.18.47.18,1S346.28,87.38,346.18,87.38Z" style="fill:#e0e0e0"></path><path d="M346.18,91.6c-.1,0-.18-.47-.18-1s.08-1.06.18-1.06.18.47.18,1.06S346.28,91.6,346.18,91.6Z" style="fill:#e0e0e0"></path><path d="M346.18,95.82c-.1,0-.18-.47-.18-1.06s.08-1.05.18-1.05.18.47.18,1.05S346.28,95.82,346.18,95.82Z" style="fill:#e0e0e0"></path><path d="M346.18,100c-.1,0-.18-.47-.18-1s.08-1,.18-1,.18.47.18,1S346.28,100,346.18,100Z" style="fill:#e0e0e0"></path><path d="M346.18,104.25c-.1,0-.18-.47-.18-1s.08-1.06.18-1.06.18.48.18,1.06S346.28,104.25,346.18,104.25Z" style="fill:#e0e0e0"></path><path d="M346.18,108.47c-.1,0-.18-.47-.18-1.06s.08-1,.18-1,.18.47.18,1S346.28,108.47,346.18,108.47Z" style="fill:#e0e0e0"></path><path d="M346.18,112.69c-.1,0-.18-.48-.18-1.06s.08-1,.18-1,.18.47.18,1S346.28,112.69,346.18,112.69Z" style="fill:#e0e0e0"></path><path d="M346.18,116.9c-.1,0-.18-.47-.18-1.05s.08-1.06.18-1.06.18.48.18,1.06S346.28,116.9,346.18,116.9Z" style="fill:#e0e0e0"></path><path d="M346.18,121.12c-.1,0-.18-.47-.18-1.06s.08-1,.18-1,.18.47.18,1S346.28,121.12,346.18,121.12Z" style="fill:#e0e0e0"></path><path d="M346.18,125.34c-.1,0-.18-.48-.18-1.06s.08-1,.18-1,.18.47.18,1S346.28,125.34,346.18,125.34Z" style="fill:#e0e0e0"></path><path d="M346.18,129.55c-.1,0-.18-.47-.18-1.05s.08-1.06.18-1.06.18.48.18,1.06S346.28,129.55,346.18,129.55Z" style="fill:#e0e0e0"></path><path d="M346.18,133.77c-.1,0-.18-.47-.18-1.05s.08-1.06.18-1.06.18.47.18,1.06S346.28,133.77,346.18,133.77Z" style="fill:#e0e0e0"></path><path d="M346.18,138c-.1,0-.18-.48-.18-1.06s.08-1.05.18-1.05.18.47.18,1.05S346.28,138,346.18,138Z" style="fill:#e0e0e0"></path><rect x="343.4" y="137.6" width="5.56" height="5.56" style="fill:#e0e0e0"></rect><rect x="268.29" y="138.36" width="5.56" height="5.56" style="fill:#e0e0e0"></rect><rect x="343.4" y="62.71" width="5.56" height="5.56" style="fill:#e0e0e0"></rect><rect x="268.29" y="63.25" width="5.56" height="5.56" style="fill:#e0e0e0"></rect><rect x="387.88" y="45.35" width="70.32" height="50.13" style="fill:#f5f5f5"></rect><path d="M458.76,52.79c0,.12-15.87.22-35.45.22s-35.46-.1-35.46-.22,15.87-.22,35.46-.22S458.76,52.66,458.76,52.79Z" style="fill:#fff"></path><path d="M393.62,49.13a1,1,0,1,1-.94-.83A.89.89,0,0,1,393.62,49.13Z" style="fill:#fff"></path><path d="M397.07,49.13a.89.89,0,0,1-.94.83.84.84,0,1,1,0-1.66A.89.89,0,0,1,397.07,49.13Z" style="fill:#fff"></path><path d="M400.53,49.13a1,1,0,1,1-.95-.83A.9.9,0,0,1,400.53,49.13Z" style="fill:#fff"></path></g><g id="freepik--Plant--inject-18"><path d="M89.78,335.58c9-13.84,9.85-30.87-1-43.39-3.36-3.88-10.17-10-15.29-9.56s-9.45,4.94-11,9.95-1,10.43-.11,15.6c1.31,7.24,3.51,14.65,8.53,20s12.4,10.91,18.86,7.38" style="fill:#7BCBDC"></path><path d="M84.77,402.19A20.68,20.68,0,0,0,79,378.7c-2.08-1.69-4.8-3-7.4-2.32s-4.42,3.4-4.79,6.13a17,17,0,0,0,1.36,8.05c1.33,3.61,3.13,7.22,6.21,9.54s7.38,4.49,10.38,2.09" style="fill:#7BCBDC"></path><path d="M106.59,397.44a29.92,29.92,0,0,1,15.09-31.58c3.44-1.8,7.69-2.86,11.16-1.12s5.27,6.12,5,10.09-2.19,7.63-4.3,11c-2.95,4.72-6.57,9.32-11.61,11.7s-11.77,4.19-15.33-.1" style="fill:#7BCBDC"></path><path d="M105,364.26c-4.33-14,3-30.93,15.26-38.95,3.8-2.49,8.61-4.22,12.86-2.6s6.84,6.5,7,11.15-1.66,9.13-3.71,13.31c-2.88,5.84-6.55,11.61-12.13,15s-14.62,6.71-19.26,2.13" style="fill:#7BCBDC"></path><path d="M96.32,432.59a3.22,3.22,0,0,0,.15-.67c.07-.51.17-1.16.29-1.95.06-.44.12-.91.19-1.41s.21-1.07.32-1.67c.23-1.19.47-2.55.86-4,.18-.74.36-1.52.56-2.33s.48-1.63.73-2.49c.47-1.74,1.16-3.53,1.8-5.45a95.85,95.85,0,0,1,12.39-23.08c1.24-1.59,2.35-3.16,3.54-4.51l1.67-2,1.63-1.76c1-1.15,2-2.09,2.89-2.94l1.21-1.19,1.07-.94,1.46-1.32a4.31,4.31,0,0,0,.49-.49,2.59,2.59,0,0,0-.56.4L125.47,376l-1.11.91-1.24,1.16c-.9.83-1.93,1.76-3,2.89l-1.67,1.74-1.71,2c-1.21,1.34-2.34,2.9-3.6,4.5a91.57,91.57,0,0,0-12.46,23.22c-.64,1.92-1.31,3.74-1.76,5.49-.24.87-.48,1.71-.7,2.51s-.36,1.61-.53,2.36c-.37,1.49-.58,2.86-.77,4.07-.1.59-.19,1.15-.28,1.67s-.1,1-.14,1.43c-.08.8-.14,1.45-.18,2A3,3,0,0,0,96.32,432.59Z" style="fill:#263238"></path><path d="M96.64,435.1a.92.92,0,0,0,0-.27q0-.33-.06-.81c-.07-.76-.16-1.8-.28-3.11-.07-.68-.14-1.43-.22-2.24S96,427,95.94,426c-.07-1.92-.25-4.1-.19-6.52,0-1.21,0-2.48,0-3.8s.14-2.69.21-4.11c.09-2.84.48-5.86.82-9a142.44,142.44,0,0,1,4.29-20.32,140.59,140.59,0,0,1,7.49-19.39c1.44-2.85,2.76-5.59,4.23-8,.72-1.22,1.36-2.44,2.07-3.55l2.06-3.2c1.26-2.06,2.6-3.79,3.71-5.36.57-.78,1.07-1.52,1.57-2.17l1.41-1.76c.81-1,1.46-1.85,1.93-2.45l.49-.65a1.3,1.3,0,0,0,.16-.23s-.08.06-.2.19l-.54.61-2,2.38L122,340.32c-.52.65-1,1.38-1.62,2.15-1.13,1.56-2.5,3.27-3.79,5.33l-2.1,3.19c-.72,1.11-1.37,2.32-2.1,3.55-1.5,2.43-2.84,5.18-4.3,8a126.38,126.38,0,0,0-11.83,39.88c-.33,3.2-.7,6.23-.77,9.08-.06,1.43-.17,2.81-.17,4.13s0,2.6,0,3.81c0,2.43.17,4.62.27,6.54.07,1,.11,1.86.18,2.68s.2,1.56.28,2.24l.4,3.1c0,.32.08.59.11.8A.87.87,0,0,0,96.64,435.1Z" style="fill:#263238"></path><path d="M73.09,299.34a1,1,0,0,0,.11.26l.39.73c.38.67.9,1.59,1.55,2.76.33.6.73,1.25,1.12,2s.77,1.57,1.21,2.44l1.39,2.79c.47,1,.92,2.08,1.42,3.2s1,2.3,1.53,3.54l1.5,3.89L84.1,323l.73,2.15c.49,1.46,1,3,1.51,4.49,1.92,6.21,3.74,13.11,5.27,20.45s2.53,14.41,3.3,20.86,1.15,12.29,1.28,17.2c.13,2.45.15,4.68.16,6.63s0,3.63,0,5,0,2.4,0,3.17v.82a1.45,1.45,0,0,0,0,.28.72.72,0,0,0,0-.27c0-.22,0-.5.06-.83,0-.77.09-1.82.15-3.16s.11-3.06.11-5,0-4.18-.07-6.64c-.08-4.93-.52-10.77-1.15-17.25S93.68,357.33,92.19,350s-3.37-14.28-5.32-20.49L85.32,325l-.74-2.15c-.28-.7-.54-1.39-.81-2.06-.53-1.35-1-2.65-1.54-3.9s-1.07-2.4-1.57-3.53-1-2.2-1.46-3.19l-1.44-2.78L76.5,305c-.4-.74-.81-1.38-1.16-2l-1.64-2.71-.44-.69A1.41,1.41,0,0,0,73.09,299.34Z" style="fill:#263238"></path><path d="M76.16,384.26a12.1,12.1,0,0,0,1,1.69c.66,1.06,1.57,2.62,2.63,4.58s2.24,4.33,3.43,7,2.31,5.74,3.32,9a92.57,92.57,0,0,1,2.32,9.29c.54,2.9.93,5.52,1.14,7.74s.36,4,.41,5.27a12.65,12.65,0,0,0,.15,1.93,10.58,10.58,0,0,0,.08-1.94c0-1.25,0-3.06-.22-5.3s-.5-4.88-1-7.8a88.74,88.74,0,0,0-2.29-9.37,87.73,87.73,0,0,0-3.39-9c-1.22-2.7-2.44-5.08-3.56-7s-2.09-3.47-2.81-4.49A11.55,11.55,0,0,0,76.16,384.26Z" style="fill:#263238"></path><polygon points="114.09 426.36 74.35 426.36 79.16 466.96 109.14 466.96 114.09 426.36" style="fill:#455a64"></polygon><polygon points="112.64 462.58 109.27 466.96 79.16 466.96 75.69 462.72 112.64 462.58" style="fill:#263238"></polygon><path d="M75.9,438.3c0,.17,8.25.3,18.42.3s18.42-.13,18.42-.3-8.25-.29-18.42-.29S75.9,438.14,75.9,438.3Z" style="fill:#fafafa"></path><path d="M75.9,441c0,.16,8.25.29,18.42.29s18.42-.13,18.42-.29-8.25-.3-18.42-.3S75.9,440.84,75.9,441Z" style="fill:#fafafa"></path><path d="M76.39,443.62c0,.17,8,.3,17.78.3s17.78-.13,17.78-.3-8-.29-17.78-.29S76.39,443.46,76.39,443.62Z" style="fill:#fafafa"></path></g><g id="freepik--Screens--inject-18"><rect x="137.23" y="105.26" width="110.79" height="69.36" style="fill:#fff"></rect><path d="M248,174.62s0-.44,0-1.26,0-2.06,0-3.65c0-3.21,0-7.91-.05-13.92,0-12-.06-29.35-.11-50.53l.21.2-110.79.06h0l.26-.26c0,24.59,0,48,0,69.36l-.24-.24,79.72.11,22.86.07,6.09,0h1.57l.55,0h-.52l-1.55,0-6,0-22.8.07-79.88.12H137v-.24c0-21.33,0-44.77,0-69.36V105h.26l110.79.06h.2v.2c0,21.23-.08,38.59-.11,50.65,0,6,0,10.68-.05,13.88,0,1.57,0,2.78,0,3.61S248,174.62,248,174.62Z" style="fill:#7BCBDC"></path><rect x="203.68" y="114.05" width="31.74" height="31.74" style="fill:#7BCBDC"></rect><path d="M231.08,150.26c0,.07-5.17.13-11.54.13s-11.53-.06-11.53-.13,5.16-.14,11.53-.14S231.08,150.18,231.08,150.26Z" style="fill:#7BCBDC"></path><path d="M238,152.88c0,.08-8.26.14-18.43.14s-18.44-.06-18.44-.14,8.25-.13,18.44-.13S238,152.81,238,152.88Z" style="fill:#7BCBDC"></path><path d="M238,156.1c0,.08-8.26.14-18.43.14s-18.44-.06-18.44-.14,8.25-.13,18.44-.13S238,156,238,156.1Z" style="fill:#7BCBDC"></path><path d="M238,159.33c0,.07-8.26.13-18.43.13s-18.44-.06-18.44-.13,8.25-.14,18.44-.14S238,159.25,238,159.33Z" style="fill:#7BCBDC"></path><path d="M238,162.55c0,.07-8.26.13-18.43.13s-18.44-.06-18.44-.13,8.25-.14,18.44-.14S238,162.47,238,162.55Z" style="fill:#7BCBDC"></path><path d="M238,165.77c0,.07-8.26.13-18.43.13s-18.44-.06-18.44-.13,8.25-.13,18.44-.13S238,165.7,238,165.77Z" style="fill:#7BCBDC"></path><rect x="150.39" y="114.05" width="31.74" height="31.74" style="fill:#7BCBDC"></rect><g style="opacity:0.8"><rect x="150.39" y="114.05" width="31.74" height="31.74" style="fill:#fff"></rect></g><path d="M177.79,150.26c0,.07-5.16.13-11.53.13s-11.53-.06-11.53-.13,5.16-.14,11.53-.14S177.79,150.18,177.79,150.26Z" style="fill:#7BCBDC"></path><path d="M184.69,152.88c0,.08-8.25.14-18.43.14s-18.44-.06-18.44-.14,8.26-.13,18.44-.13S184.69,152.81,184.69,152.88Z" style="fill:#7BCBDC"></path><path d="M184.69,156.1c0,.08-8.25.14-18.43.14s-18.44-.06-18.44-.14,8.26-.13,18.44-.13S184.69,156,184.69,156.1Z" style="fill:#7BCBDC"></path><path d="M184.69,159.33c0,.07-8.25.13-18.43.13s-18.44-.06-18.44-.13,8.26-.14,18.44-.14S184.69,159.25,184.69,159.33Z" style="fill:#7BCBDC"></path><path d="M184.69,162.55c0,.07-8.25.13-18.43.13s-18.44-.06-18.44-.13,8.26-.14,18.44-.14S184.69,162.47,184.69,162.55Z" style="fill:#7BCBDC"></path><path d="M184.69,165.77c0,.07-8.25.13-18.43.13s-18.44-.06-18.44-.13,8.26-.13,18.44-.13S184.69,165.7,184.69,165.77Z" style="fill:#7BCBDC"></path><g style="opacity:0.8"><rect x="203.68" y="114.05" width="31.74" height="31.74" style="fill:#fff"></rect></g><path d="M234.68,134.77l-.16-.13-.46-.42-1.69-1.61-5.93-5.72h.17l-6.09,6.93-.24.27-.09.1-.1-.08L216.33,131h.17l-8.22,7.34-2.41,2.12-.66.56-.23.18s.06-.08.2-.22l.63-.59,2.36-2.17,8.16-7.41.08-.08.09.07c1.19,1,2.45,2,3.76,3.1l-.19,0,.25-.28,6.11-6.91.08-.09.09.09,5.87,5.79,1.65,1.66.42.44C234.64,134.71,234.69,134.77,234.68,134.77Z" style="fill:#7BCBDC"></path><path d="M214.63,124.24s-.17-.26-.54-.63a3.37,3.37,0,0,0-2-.94,3.28,3.28,0,0,0-3.66,2.91,3.25,3.25,0,0,0,.42,2,3.36,3.36,0,0,0,1.51,1.36,3.25,3.25,0,0,0,1.88.23,3.3,3.3,0,0,0,2.47-1.94,3.38,3.38,0,0,0,.17-2.19c-.13-.51-.3-.77-.27-.78s.05.06.12.18a2.25,2.25,0,0,1,.25.57,3.38,3.38,0,0,1-.09,2.29,3.5,3.5,0,0,1-6.27.42,3.49,3.49,0,0,1,3.49-5.22,3.38,3.38,0,0,1,2,1.06,2.72,2.72,0,0,1,.38.5C214.61,124.17,214.64,124.23,214.63,124.24Z" style="fill:#7BCBDC"></path><path d="M235.32,280s0-.17,0-.48,0-.78,0-1.34c0-1.21,0-2.9-.06-5,0-4.36-.07-10.52-.12-17.94l.23.23-30.95.05.28-.28h0v13c0,4.16,0,8.12,0,11.81l-.25-.25,22.3.13,6.35.06,1.7,0,.6,0a3.35,3.35,0,0,1-.54,0l-1.65,0-6.3.07-22.46.12h-.25V280c0-3.69,0-7.65,0-11.81v-13h0l.28-.28,30.95,0h.24v.24c-.05,7.48-.09,13.69-.12,18.08,0,2.12-.05,3.8-.06,5q0,.8,0,1.29A2.17,2.17,0,0,1,235.32,280Z" style="fill:#7BCBDC"></path><path d="M231.37,270.94a15.69,15.69,0,0,1-1.94-1.68c-1.19-1.1-2.86-2.69-4.84-4.59H225L220,270.27l-.2.23-.18.2-.21-.17-3-2.52h.36c-2.68,2.39-5,4.44-6.7,5.89l-2,1.68a3.31,3.31,0,0,1-.76.55,3.86,3.86,0,0,1,.64-.69l1.87-1.8c1.62-1.51,3.91-3.62,6.57-6l.17-.15.18.15,3.05,2.5-.39,0,.2-.23,4.95-5.57.18-.2.19.18c1.94,1.94,3.57,3.58,4.7,4.74A17.15,17.15,0,0,1,231.37,270.94Z" style="fill:#7BCBDC"></path><path d="M215.14,262.42s-.17-.18-.49-.46a2.67,2.67,0,0,0-1.56-.69,2.58,2.58,0,0,0-2.23.92,2.51,2.51,0,1,0,4.25,2.58,2.74,2.74,0,0,0,.19-1.7c-.09-.41-.2-.63-.16-.65s.21.17.37.59a2.74,2.74,0,0,1,0,1.92,2.92,2.92,0,0,1-2.19,1.82,3,3,0,0,1-3.15-1.45,3,3,0,0,1,.33-3.44,2.94,2.94,0,0,1,2.67-1,2.73,2.73,0,0,1,1.67.94C215.1,262.16,215.17,262.41,215.14,262.42Z" style="fill:#7BCBDC"></path><path d="M200.77,273.23s-.18-.18-.49-.46a2.74,2.74,0,0,0-1.57-.69,2.57,2.57,0,0,0-2.22.92,2.5,2.5,0,0,0,2.34,4.05,2.59,2.59,0,0,0,1.91-1.46,2.85,2.85,0,0,0,.19-1.71c-.09-.41-.2-.63-.16-.65s.2.17.37.59a2.81,2.81,0,0,1,0,1.92,2.92,2.92,0,0,1-2.18,1.82,3,3,0,0,1-2.83-4.89,2.93,2.93,0,0,1,2.67-1,2.68,2.68,0,0,1,1.68.93C200.73,273,200.8,273.22,200.77,273.23Z" style="fill:#7BCBDC"></path><path d="M219.85,281.08a2.72,2.72,0,0,1,0,.53c0,.4,0,.91.05,1.53,0,1.41.05,3.35.08,5.77v.18h-.17c-6.4.06-16.47.1-27.76.1h-1.7v-.28c0-8.81.05-16.78.07-22.8v-.21h.21l8.3.09,2.26.06a4,4,0,0,1,.79.06,4,4,0,0,1-.79.06l-2.26.05-8.3.09.2-.2c0,6,0,14,.08,22.8l-.28-.28h1.42c11.29,0,21.36,0,27.76.11l-.18.17c0-2.42.06-4.36.08-5.77,0-.62,0-1.13.05-1.53A1.69,1.69,0,0,1,219.85,281.08Z" style="fill:#7BCBDC"></path><path d="M202.71,278.46a43.48,43.48,0,0,1-4.48,4.25,43.26,43.26,0,0,1-4.69,4,28.3,28.3,0,0,1,4.32-4.43A29,29,0,0,1,202.71,278.46Z" style="fill:#7BCBDC"></path><path d="M209,284.69c-.09.12-.94-.42-1.74-1.33s-1.24-1.81-1.11-1.89.75.65,1.53,1.52S209.06,284.57,209,284.69Z" style="fill:#7BCBDC"></path><path d="M245.31,302.58s0-.4,0-1.15,0-1.87,0-3.31c0-2.92,0-7.18,0-12.65,0-10.94-.07-26.68-.12-46l.22.21-105.76.07h0l.28-.28c0,22.34,0,43.67,0,63.09l-.26-.26,76.07.12,21.84.08,5.83,0h1.51l.52,0h-.49l-1.48,0-5.77,0-21.79.07-76.24.13h-.26v-.26c0-19.42,0-40.75,0-63.09v-.28h.29l105.76.06h.22v.22c-.05,19.36-.09,35.15-.12,46.12,0,5.44,0,9.69,0,12.59,0,1.43,0,2.52,0,3.28S245.31,302.58,245.31,302.58Z" style="fill:#7BCBDC"></path><rect x="148.1" y="254.26" width="32.22" height="2.35" style="fill:#7BCBDC"></rect><path d="M179,265.9c0,.16-7,.28-15.7.28s-15.7-.12-15.7-.28,7-.28,15.7-.28S179,265.75,179,265.9Z" style="fill:#7BCBDC"></path><path d="M179,271.12c0,.16-7,.28-15.7.28s-15.7-.12-15.7-.28,7-.28,15.7-.28S179,271,179,271.12Z" style="fill:#7BCBDC"></path><path d="M179,276.34c0,.16-7,.28-15.7.28s-15.7-.12-15.7-.28,7-.28,15.7-.28S179,276.19,179,276.34Z" style="fill:#7BCBDC"></path><path d="M179,281.56c0,.15-7,.28-15.7.28s-15.7-.13-15.7-.28,7-.28,15.7-.28S179,281.41,179,281.56Z" style="fill:#7BCBDC"></path><path d="M161.75,286.68a45.42,45.42,0,0,1-7.06.28,45.6,45.6,0,0,1-7.07-.28,44.16,44.16,0,0,1,7.07-.28A44,44,0,0,1,161.75,286.68Z" style="fill:#7BCBDC"></path><path d="M239.69,290.7c-.05,0-.05-.39-.24-1a4.37,4.37,0,0,0-1.61-2.27,4.12,4.12,0,1,0,0,6.62,4.33,4.33,0,0,0,1.61-2.27c.19-.65.19-1,.24-1a2.36,2.36,0,0,1,0,1.09,4.36,4.36,0,0,1-1.57,2.54,4.56,4.56,0,0,1-4.34.71,4.6,4.6,0,0,1,0-8.68,4.56,4.56,0,0,1,4.33.71,4.33,4.33,0,0,1,1.58,2.54A2.36,2.36,0,0,1,239.69,290.7Z" style="fill:#7BCBDC"></path><path d="M130.85,308.1a34,34,0,0,1,.26,6l-.26-.26h1.21l1.13,0,1.9.05a5.67,5.67,0,0,1,1.76.19,6.34,6.34,0,0,1-1.76.18l-1.9.06h-2.34l-.26-.26A35.22,35.22,0,0,1,130.85,308.1Z" style="fill:#7BCBDC"></path><path d="M130.85,283.79a34.9,34.9,0,0,1,.26,6.07,35,35,0,0,1-.26,6.08,36.2,36.2,0,0,1-.26-6.08A36.13,36.13,0,0,1,130.85,283.79Z" style="fill:#7BCBDC"></path><path d="M130.85,259.48a34.9,34.9,0,0,1,.26,6.07,35,35,0,0,1-.26,6.08,36.2,36.2,0,0,1-.26-6.08A36.13,36.13,0,0,1,130.85,259.48Z" style="fill:#7BCBDC"></path><path d="M130.85,235.16a35.07,35.07,0,0,1,.26,6.08,35,35,0,0,1-.26,6.08,36.2,36.2,0,0,1-.26-6.08A36.3,36.3,0,0,1,130.85,235.16Z" style="fill:#7BCBDC"></path><path d="M130.85,210.85a35.07,35.07,0,0,1,.26,6.08,35,35,0,0,1-.26,6.08,36.2,36.2,0,0,1-.26-6.08A36.3,36.3,0,0,1,130.85,210.85Z" style="fill:#7BCBDC"></path><path d="M130.85,186.54a35,35,0,0,1,.26,6.08,35,35,0,0,1-.26,6.08,36.2,36.2,0,0,1-.26-6.08A36.2,36.2,0,0,1,130.85,186.54Z" style="fill:#7BCBDC"></path><path d="M130.85,162.23a35,35,0,0,1,.26,6.08,35,35,0,0,1-.26,6.08,36.2,36.2,0,0,1-.26-6.08A36.2,36.2,0,0,1,130.85,162.23Z" style="fill:#7BCBDC"></path><path d="M130.85,137.92a35,35,0,0,1,.26,6.08,35,35,0,0,1-.26,6.08,36.2,36.2,0,0,1-.26-6.08A36.2,36.2,0,0,1,130.85,137.92Z" style="fill:#7BCBDC"></path><path d="M130.85,113.61a35,35,0,0,1,.26,6.08,35,35,0,0,1-.26,6.08,36.2,36.2,0,0,1-.26-6.08A36.2,36.2,0,0,1,130.85,113.61Z" style="fill:#7BCBDC"></path><path d="M136.85,95.46a35.32,35.32,0,0,1-6,.26l.26-.26h0v1.19c0,.39,0,.76,0,1.13,0,.66,0,1.29-.05,1.91a6.14,6.14,0,0,1-.19,1.76,6,6,0,0,1-.18-1.76c0-.62,0-1.25-.06-1.91,0-.37,0-.74,0-1.13,0-.19,0-.39,0-.59v-.6h0l.26-.26A34.12,34.12,0,0,1,136.85,95.46Z" style="fill:#7BCBDC"></path><path d="M161.61,95.46a37.52,37.52,0,0,1-6.19.26,37.52,37.52,0,0,1-6.19-.26,36.25,36.25,0,0,1,6.19-.26A36.25,36.25,0,0,1,161.61,95.46Z" style="fill:#7BCBDC"></path><path d="M186.37,95.46a37.52,37.52,0,0,1-6.19.26,37.52,37.52,0,0,1-6.19-.26,36.25,36.25,0,0,1,6.19-.26A36.25,36.25,0,0,1,186.37,95.46Z" style="fill:#7BCBDC"></path><path d="M211.13,95.46a37.62,37.62,0,0,1-6.19.26,37.52,37.52,0,0,1-6.19-.26,36.25,36.25,0,0,1,6.19-.26A36.35,36.35,0,0,1,211.13,95.46Z" style="fill:#7BCBDC"></path><path d="M235.88,95.46a37.52,37.52,0,0,1-6.19.26,37.62,37.62,0,0,1-6.19-.26,36.35,36.35,0,0,1,6.19-.26A36.25,36.25,0,0,1,235.88,95.46Z" style="fill:#7BCBDC"></path><path d="M254.26,101.46a35.32,35.32,0,0,1-.26-6l.26.26h-2.33L250,95.64a6.34,6.34,0,0,1-1.76-.18,5.67,5.67,0,0,1,1.76-.19l1.91,0,1.12,0h1.21l.26.26A34.12,34.12,0,0,1,254.26,101.46Z" style="fill:#7BCBDC"></path><path d="M254.26,125.77a36.2,36.2,0,0,1-.26-6.08,36.2,36.2,0,0,1,.26-6.08,35,35,0,0,1,.26,6.08A35,35,0,0,1,254.26,125.77Z" style="fill:#7BCBDC"></path><path d="M254.26,150.08A36.2,36.2,0,0,1,254,144a36.2,36.2,0,0,1,.26-6.08,35,35,0,0,1,.26,6.08A35,35,0,0,1,254.26,150.08Z" style="fill:#7BCBDC"></path><path d="M254.26,174.39a36.2,36.2,0,0,1-.26-6.08,36.2,36.2,0,0,1,.26-6.08,35,35,0,0,1,.26,6.08A35,35,0,0,1,254.26,174.39Z" style="fill:#7BCBDC"></path><path d="M254.26,198.7a36.2,36.2,0,0,1-.26-6.08,36.2,36.2,0,0,1,.26-6.08,35,35,0,0,1,.26,6.08A35,35,0,0,1,254.26,198.7Z" style="fill:#7BCBDC"></path><path d="M254.26,223a36.2,36.2,0,0,1-.26-6.08,36.2,36.2,0,0,1,.26-6.08,35,35,0,0,1,.26,6.08A35,35,0,0,1,254.26,223Z" style="fill:#7BCBDC"></path><path d="M254.26,247.32a36.2,36.2,0,0,1-.26-6.08,36.3,36.3,0,0,1,.26-6.08,35.07,35.07,0,0,1,.26,6.08A35,35,0,0,1,254.26,247.32Z" style="fill:#7BCBDC"></path><path d="M254.26,271.63a36.2,36.2,0,0,1-.26-6.08,36.13,36.13,0,0,1,.26-6.07,34.9,34.9,0,0,1,.26,6.07A35,35,0,0,1,254.26,271.63Z" style="fill:#7BCBDC"></path><path d="M254.26,295.94a36.2,36.2,0,0,1-.26-6.08,36.13,36.13,0,0,1,.26-6.07,34.9,34.9,0,0,1,.26,6.07A35,35,0,0,1,254.26,295.94Z" style="fill:#7BCBDC"></path><path d="M248.26,314.1a34.12,34.12,0,0,1,6-.26c-.52.52-.14.14-.26.25h0v-1.19c0-.39,0-.76,0-1.13,0-.66,0-1.29.06-1.91a6.3,6.3,0,0,1,.18-1.75,6,6,0,0,1,.19,1.75c0,.62,0,1.25.05,1.91,0,.37,0,.74,0,1.13v1.19h0c-.11.12.26-.25-.26.27A35.32,35.32,0,0,1,248.26,314.1Z" style="fill:#7BCBDC"></path><path d="M223.5,314.1a36.35,36.35,0,0,1,6.19-.26,36.25,36.25,0,0,1,6.19.26,37.52,37.52,0,0,1-6.19.26A37.62,37.62,0,0,1,223.5,314.1Z" style="fill:#7BCBDC"></path><path d="M198.75,314.1a36.25,36.25,0,0,1,6.19-.26,36.35,36.35,0,0,1,6.19.26,37.62,37.62,0,0,1-6.19.26A37.52,37.52,0,0,1,198.75,314.1Z" style="fill:#7BCBDC"></path><path d="M174,314.1a36.25,36.25,0,0,1,6.19-.26,36.25,36.25,0,0,1,6.19.26,37.52,37.52,0,0,1-6.19.26A37.52,37.52,0,0,1,174,314.1Z" style="fill:#7BCBDC"></path><path d="M149.23,314.1a36.25,36.25,0,0,1,6.19-.26,36.25,36.25,0,0,1,6.19.26,37.52,37.52,0,0,1-6.19.26A37.52,37.52,0,0,1,149.23,314.1Z" style="fill:#7BCBDC"></path><rect x="194.01" y="312.29" width="3.62" height="3.62" style="fill:#7BCBDC"></rect><rect x="252.22" y="312.29" width="3.62" height="3.62" style="fill:#7BCBDC"></rect><rect x="190.81" y="93.41" width="3.62" height="3.62" style="fill:#7BCBDC"></rect><rect x="252.45" y="93.41" width="3.62" height="3.62" style="fill:#7BCBDC"></rect><rect x="129.38" y="312.29" width="3.62" height="3.62" style="fill:#7BCBDC"></rect><rect x="129.62" y="93.41" width="3.62" height="3.62" style="fill:#7BCBDC"></rect></g><g id="freepik--Floor--inject-18"><path d="M450.73,466.91c0,.15-87.64.26-195.72.26s-195.74-.11-195.74-.26,87.62-.26,195.74-.26S450.73,466.77,450.73,466.91Z" style="fill:#263238"></path></g><g id="freepik--Character--inject-18"><polygon points="381.76 452.53 381.98 440.34 403.19 439.08 403.19 453.99 395.57 458.82 381.76 452.53" style="fill:#ffceb0"></polygon><path d="M403.59,451.21l0,1.4s23.78,9.21,24.08,13.7l-47,.33.53-15.64C388.25,454.18,395.56,454.5,403.59,451.21Z" style="fill:#7BCBDC"></path><g style="opacity:0.6000000000000001"><path d="M386,456a1.92,1.92,0,0,0-1.31,2.2,1.84,1.84,0,0,0,2.17,1.32,2,2,0,0,0,1.37-2.34,1.91,1.91,0,0,0-2.4-1.12" style="fill:#fff"></path></g><g style="opacity:0.6000000000000001"><path d="M380.71,466.64l.12-3.77,45,1.07s2.1.9,1.87,2.37Z" style="fill:#fff"></path></g><path d="M403.78,452.74c0,.23-1.16.34-2.28,1.08s-1.72,1.72-1.93,1.63.12-1.42,1.5-2.3S403.83,452.53,403.78,452.74Z" style="fill:#263238"></path><path d="M408.72,454.74c0,.22-.94.62-1.71,1.6s-1,2-1.22,2-.38-1.3.6-2.5S408.71,454.52,408.72,454.74Z" style="fill:#263238"></path><path d="M411.56,460.62c-.21.05-.54-1.09,0-2.35s1.65-1.77,1.75-1.58-.56.86-1,1.91S411.79,460.6,411.56,460.62Z" style="fill:#263238"></path><polygon points="324.04 421.61 319.51 457.55 336.22 458.59 344.58 424.11 324.04 421.61" style="fill:#ffceb0"></polygon><path d="M337.74,451.62S325,458.13,320.3,450.4l-1.92,3.19-9.83,23.19a3.22,3.22,0,0,0,1.35,4.11,3.29,3.29,0,0,0,3.47-.18c5.39-3.8,25.12-17.89,25.25-20.14l.72-5.92a3,3,0,0,0-1.6-3Z" style="fill:#7BCBDC"></path><g style="opacity:0.6000000000000001"><path d="M310.45,481.13l28.45-22.61-.18,1.29c-.06,1.41-.76,1.88-1.56,2.69-2.38,2.39-8.77,7.58-23.69,18.23a3.31,3.31,0,0,1-3,.4Z" style="fill:#fff"></path></g><g style="opacity:0.6000000000000001"><path d="M335.75,454.18a1.88,1.88,0,0,0-.87,2.4,1.91,1.91,0,0,0,2.43.87,2,2,0,0,0,.91-2.53,2,2,0,0,0-2.63-.64" style="fill:#fff"></path></g><path d="M319.42,468.8c-.19.06-.67-1.63-2.41-2.74s-3.5-1-3.51-1.17.41-.26,1.15-.26a5.18,5.18,0,0,1,2.74.87,5,5,0,0,1,1.85,2.16C319.52,468.33,319.5,468.79,319.42,468.8Z" style="fill:#263238"></path><path d="M316.63,472.58c-.16.11-1-1-2.59-1.69s-3-.61-3-.8,1.53-.61,3.29.18S316.81,472.52,316.63,472.58Z" style="fill:#263238"></path><path d="M324.29,464.15c-.17.12-1.5-1.62-3.82-2.87s-4.52-1.49-4.5-1.69,2.36-.28,4.84,1.1S324.45,464.08,324.29,464.15Z" style="fill:#263238"></path><path d="M325.82,456.89c-.11.17-1.74-.77-4-1.16s-4.09-.1-4.13-.3,1.85-.8,4.25-.36S325.94,456.76,325.82,456.89Z" style="fill:#263238"></path><path d="M320.57,455.5a2.47,2.47,0,0,1,.33-1.12,8.06,8.06,0,0,1,1.86-2.6,3.72,3.72,0,0,1,2.05-1.14,1.32,1.32,0,0,1,1.3.72,2,2,0,0,1,0,1.47,4.55,4.55,0,0,1-5.11,2.68,5.28,5.28,0,0,1-4.1-4.17,1.81,1.81,0,0,1,.39-1.44,1.31,1.31,0,0,1,1.48-.21,4.5,4.5,0,0,1,1.64,1.64,8.79,8.79,0,0,1,1.29,2.93,2.58,2.58,0,0,1,.13,1.16A14.19,14.19,0,0,0,320,451.6a4.19,4.19,0,0,0-1.47-1.4.68.68,0,0,0-.8.11,1.17,1.17,0,0,0-.2,1,4.71,4.71,0,0,0,3.59,3.57,4,4,0,0,0,4.38-2.21,1.52,1.52,0,0,0,0-1,.71.71,0,0,0-.72-.41,3.34,3.34,0,0,0-1.74.93A11.81,11.81,0,0,0,320.57,455.5Z" style="fill:#263238"></path><path d="M415,281.59c-2.9-11.6-7-26.25-9.43-27.62l-4-7.47L339.37,254,338,257.42s-3.62,4.84-3.62,8.94-.13,11.08-1.3,14.94c-2.36,7.75-3.48,19.3-5.47,49.89l1.45,34.6L323.64,408c-1.21,10.88-2.92,30.24-2.92,30.24s10,12.25,20.43,5.24l16.54-57.13a125.73,125.73,0,0,0,3-12.84c3.15-17.76,13.05-67,13.05-67s6.12,68.56,6,72.25l-.14,6.66s-.13,50.28-.06,54.17l.08,5s23.95,4.28,24.57-1.13c.24-2.12,3.09-50.23,3.09-50.23L415,312.76S417.94,293.19,415,281.59Z" style="fill:#263238"></path><path d="M379.5,300.6a13.81,13.81,0,0,1-.06-1.78c0-1.23,0-2.86,0-4.84,0-4.09-.15-9.74-.52-16s-.93-11.85-1.39-15.92c-.23-2-.42-3.59-.57-4.81a11,11,0,0,1-.15-1.77,10.86,10.86,0,0,1,.36,1.74c.19,1.13.45,2.77.72,4.8.56,4.05,1.17,9.68,1.55,15.93s.43,11.9.37,16c0,2-.09,3.7-.15,4.85A10.62,10.62,0,0,1,379.5,300.6Z" style="fill:#455a64"></path><path d="M403.83,254a5,5,0,0,1-.63.28l-1.81.73c-.79.31-1.77.68-2.92,1s-2.44.85-3.91,1.24-3.06.89-4.81,1.28-3.61.8-5.58,1.19a113.14,113.14,0,0,1-13,1.51,110.34,110.34,0,0,1-13.09-.16c-2-.18-3.91-.33-5.68-.6s-3.42-.5-4.91-.77-2.84-.58-4-.83-2.19-.52-3-.75l-1.88-.53a5,5,0,0,1-.65-.22,2.94,2.94,0,0,1,.67.11l1.91.44c.82.2,1.83.44,3,.66s2.52.54,4,.75,3.13.52,4.91.71,3.66.38,5.66.55a116.27,116.27,0,0,0,13,.12,119.54,119.54,0,0,0,12.94-1.46c2-.38,3.85-.71,5.58-1.14s3.34-.81,4.8-1.21,2.77-.82,3.92-1.17,2.14-.68,2.94-1l1.85-.64A3.28,3.28,0,0,1,403.83,254Z" style="fill:#455a64"></path><path d="M409.24,286.87a2.1,2.1,0,0,1-.49.16l-1.44.34c-1.25.29-3.05.71-5.27,1.26-4.45,1.1-10.55,2.78-17.17,5s-12.47,4.65-16.66,6.5c-2.1.92-3.79,1.68-4.95,2.22l-1.35.61a2.62,2.62,0,0,1-.48.18s.14-.11.44-.28l1.3-.69c1.14-.6,2.81-1.41,4.89-2.38a175.36,175.36,0,0,1,16.65-6.66A172.16,172.16,0,0,1,402,288.28c2.24-.51,4.06-.88,5.32-1.11l1.46-.25A1.79,1.79,0,0,1,409.24,286.87Z" style="fill:#455a64"></path><path d="M403.3,296.2a6.47,6.47,0,0,1-1.39.09c-.9,0-2.2.08-3.8.22a50.85,50.85,0,0,0-12.21,2.63,56.48,56.48,0,0,0-6.34,2.69,52.22,52.22,0,0,0-4.87,2.82c-1.34.88-2.4,1.63-3.11,2.18a8.43,8.43,0,0,1-1.15.8,6.39,6.39,0,0,1,1-1,35.94,35.94,0,0,1,3-2.33,48.14,48.14,0,0,1,4.85-2.94,53.07,53.07,0,0,1,6.39-2.76,51.16,51.16,0,0,1,6.72-1.79,45.05,45.05,0,0,1,5.63-.7,34.56,34.56,0,0,1,3.83-.06A8,8,0,0,1,403.3,296.2Z" style="fill:#455a64"></path><path d="M351.61,386.5a11.44,11.44,0,0,1-2.79-.75A34,34,0,0,1,337,378.56a11.44,11.44,0,0,1-2-2.13,26.2,26.2,0,0,1,2.2,1.86,45,45,0,0,0,5.6,4,44,44,0,0,0,6.16,3.09A22.51,22.51,0,0,1,351.61,386.5Z" style="fill:#455a64"></path><path d="M397.7,379.74a20.61,20.61,0,0,1-4.19,1.82,19.66,19.66,0,0,1-4.37,1.34,20.29,20.29,0,0,1,4.19-1.82A19.49,19.49,0,0,1,397.7,379.74Z" style="fill:#455a64"></path><path d="M390.48,162.17a15.43,15.43,0,0,1-1.71-3.2c-.35-1.41.19-2.87.44-4.31a10.9,10.9,0,0,0-2.41-8.78h0c-3.06-3.52-8-4.64-10.61-.77L373.85,149c-1.28,1.52-1.32,3.72-1,5.69s.84,3.95.49,5.91c-.32,1.79-1.37,3.38-1.8,5.15-.66,2.72.21,5.59,1.39,8.13s2.69,5,3.4,7.67a5.36,5.36,0,0,0,3.84-4.63,6.22,6.22,0,0,0,8.56.7,8,8,0,0,0,2.38-4.35,22.78,22.78,0,0,0,.38-5A12.9,12.9,0,0,0,390.48,162.17Z" style="fill:#e0e0e0"></path><path d="M324.86,242.54a21.25,21.25,0,0,0,4-11.95l5.9-27s-4.16-33.06-16.49-35.15c0,0-5.36,2.62-6.6,12.73-.7,5.69-5.45,35-5.7,38.6l-17.41-8-8.55,13.43s13,13.41,23.18,20.74A15.48,15.48,0,0,0,324.86,242.54Z" style="fill:#7BCBDC"></path><path d="M431.37,219.54c-3.19-8.66-21-46-23.69-51.07a22.65,22.65,0,0,0-7.81-8,26.05,26.05,0,0,0-9.52-3.78l-12.54-2.32-6.68-5.91-25.71,2.7L339,157.64s-19.17,7.94-21.15,11.45,17.68,44.3,18.16,47.15,2.46,15.79,2.67,20-5,14-1.75,16.88,41.67,3.07,43.86,2.19,19.08-4.82,20.83-8.77l.38-14.21,3.64,1.6s17.08,7.29,23.92,3.65S434.56,228.2,431.37,219.54Z" style="fill:#7BCBDC"></path><polygon points="393.36 196.55 409.69 172.65 445.63 180.81 422.4 218.01 411.57 217.9 403.12 213.76 392.41 201.22 393.36 196.55" style="fill:#455a64"></polygon><g style="opacity:0.30000000000000004"><path d="M398.92,238.74c-3.44-2.65-7.84-3.71-12.15-4.21a55.85,55.85,0,0,0-17.73.78l.53.85a30.91,30.91,0,0,0,28.06,9.66,4.76,4.76,0,0,0,3.33-1.73C402.06,242.3,400.58,240,398.92,238.74Z"></path></g><polygon points="383.48 214.95 368.68 236.28 405.56 242.66 413.96 230.68 383.48 214.95" style="fill:#455a64"></polygon><polygon points="403.8 212.8 413.21 217.85 415.73 231.35 410.44 235.69 394.97 225.37 403.8 212.8" style="fill:#7BCBDC"></polygon><path d="M345.47,150.27v11.22L363.25,178s9.11-13,9.11-13.76-1-16.6-1-16.6Z" style="fill:#ffceb0"></path><path d="M335.36,215a2,2,0,0,1-.22-.42c-.15-.34-.33-.74-.54-1.23-.46-1.08-1.08-2.65-1.81-4.61-1.48-3.91-3.39-9.36-5.68-15.3a108.92,108.92,0,0,0-6.77-14.81,41.73,41.73,0,0,0-2.68-4.12l-.82-1.07c-.19-.24-.28-.38-.26-.39s.13.1.34.32.54.61.9,1a33,33,0,0,1,2.84,4.07,95.57,95.57,0,0,1,6.94,14.8c2.29,6,4.14,11.43,5.53,15.36l1.66,4.66.45,1.27C335.34,214.79,335.38,214.94,335.36,215Z" style="fill:#263238"></path><path d="M359.7,177.47a13.14,13.14,0,0,1-1.34-1.13c-.86-.73-2.1-1.77-3.72-3-.81-.59-1.72-1.21-2.71-1.84a25.34,25.34,0,0,0-3.26-1.83,4.38,4.38,0,0,0-1.89-.34,3.15,3.15,0,0,0-1.79.74,5.58,5.58,0,0,0-1.84,3.76,21.56,21.56,0,0,0-.12,2.64l0,1.38-.49-1.29A54.71,54.71,0,0,1,339.31,163c-.17-1.76-.23-3.17-.24-4.15a8.14,8.14,0,0,1,.05-1.51,9.86,9.86,0,0,1,.14,1.5c.06,1,.18,2.38.4,4.12A58.76,58.76,0,0,0,343,176.42l-.5.09a19.41,19.41,0,0,1,.13-2.71,6,6,0,0,1,2-4.09,3.67,3.67,0,0,1,2.08-.84,4.72,4.72,0,0,1,2.1.4,23.43,23.43,0,0,1,3.31,1.91c1,.65,1.89,1.3,2.7,1.91a43.62,43.62,0,0,1,3.63,3.1c.41.4.72.71.92.93S359.71,177.45,359.7,177.47Z" style="fill:#263238"></path><path d="M363.25,178a12.64,12.64,0,0,1,.87-1c.57-.64,1.36-1.62,2.3-2.87,1.89-2.51,4.28-6.21,7.1-10.45l.14-.21.21.14,4.62,3.14,4.85,3.32-.39.25a39.85,39.85,0,0,0-3.82-11.72c-.69-1.37-1.32-2.43-1.76-3.16a7.45,7.45,0,0,1-.65-1.13,8.15,8.15,0,0,1,.8,1,33.6,33.6,0,0,1,1.9,3.1,38.09,38.09,0,0,1,4,11.79l.1.58-.49-.33-4.86-3.31L373.58,164l.35-.07c-2.82,4.21-5.28,7.9-7.26,10.36a31.84,31.84,0,0,1-2.43,2.8c-.29.31-.55.53-.71.68S363.26,178,363.25,178Z" style="fill:#263238"></path><path d="M373.23,229.73a1.85,1.85,0,0,1-.09-.51c0-.39-.08-.87-.13-1.45-.12-1.33-.28-3.13-.47-5.32-.41-4.5-1.07-10.7-2.2-17.49a133.08,133.08,0,0,0-3.93-17.17c-.32-1.08-.64-2-.94-2.89s-.54-1.58-.77-2.16-.37-1-.51-1.37a1.58,1.58,0,0,1-.14-.49,2.53,2.53,0,0,1,.24.45c.16.36.36.8.59,1.33s.55,1.3.86,2.14.67,1.8,1,2.88a116.58,116.58,0,0,1,4.09,17.19c1.14,6.81,1.74,13,2.06,17.55.16,2.25.26,4.08.3,5.34,0,.58,0,1.06,0,1.46A3,3,0,0,1,373.23,229.73Z" style="fill:#263238"></path><path d="M403.6,213.08l2.88-10.49,1.2-4L407.6,191s-3-1.71-4.2,3.44l-.93,3.93s-4,4.91-4.5,4.68l-2.71-1.24-1.07-6.43s-2.7-1.54-3.88-.88a3.51,3.51,0,0,0-1.92,2.81s-2.78.23-2,4.44c0,0-2.89-.12-2.72,4.14a3.3,3.3,0,0,0-1.36,3.61c.48,2.6,1.13,5.5,1.13,5.5s2.42,3.55,4.67,4.55,8.22,3.88,8.22,3.88Z" style="fill:#ffceb0"></path><path d="M390.31,202.6A7.94,7.94,0,0,1,389.1,200a7.79,7.79,0,0,1-.71-2.76,15.83,15.83,0,0,1,1.92,5.34Z" style="fill:#263238"></path><path d="M387.61,206a6.16,6.16,0,0,1-1-2.33,6.09,6.09,0,0,1-.45-2.47,6.44,6.44,0,0,1,.95,2.33A6.21,6.21,0,0,1,387.61,206Z" style="fill:#263238"></path><path d="M384.84,209.56c-.14,0-.47-.8-.73-1.85a4,4,0,0,1-.23-2c.13,0,.46.79.73,1.86S385,209.54,384.84,209.56Z" style="fill:#263238"></path><path d="M428.73,217.48a9.54,9.54,0,0,1-2.25.41,52.6,52.6,0,0,1-5.5.37c-2.15,0-4.1,0-5.51-.14a9.26,9.26,0,0,1-2.26-.27c0-.16,3.48,0,7.76-.11,2.14,0,4.08-.13,5.48-.21A10.62,10.62,0,0,1,428.73,217.48Z" style="fill:#263238"></path><path d="M315.81,227.4a27.86,27.86,0,0,0-4.62-4.85,27.1,27.1,0,0,0-5.91-3.13,5.33,5.33,0,0,1,2,.43,15.5,15.5,0,0,1,7.62,5.78A5.69,5.69,0,0,1,315.81,227.4Z" style="fill:#263238"></path><path d="M314.45,221.89a17.92,17.92,0,0,0-4.21-2.21,17.54,17.54,0,0,0-4.73-.52,2.9,2.9,0,0,1,1.4-.35,9.22,9.22,0,0,1,6.57,2C314.17,221.39,314.49,221.85,314.45,221.89Z" style="fill:#263238"></path><g style="opacity:0.30000000000000004"><path d="M306.16,219.88a12,12,0,0,1,6.4,3.66,26.63,26.63,0,0,1,4.18,6.19c.47.91,1.31,2,2.26,1.62s.91-1.4.78-2.25a11.7,11.7,0,0,0-14.28-9.62"></path></g><g style="opacity:0.30000000000000004"><path d="M363.25,178c4-2.17,7.66-4.4,10.5-8a3.12,3.12,0,0,1,1.67-1.32,2.93,2.93,0,0,1,1.78.47l8.44,4.33a21.17,21.17,0,0,0-5-12c1.07,2.22,2.52,8.72,2.52,8.72a88,88,0,0,0-7.27-5,19.86,19.86,0,0,0-2.21-1.42,5.61,5.61,0,0,0-1.11,1.72c-.32,1.38-6.26,8.8-9.36,12.47"></path></g><path d="M346.71,254.18a.64.64,0,0,1,0-.24c0-.19,0-.42,0-.7,0-.66,0-1.55.07-2.69,0-.58,0-1.23.06-1.93s0-1.48,0-2.31c0-1.66,0-3.54-.15-5.62q-.09-1.56-.18-3.27c-.07-1.13-.23-2.31-.34-3.52-.2-2.45-.63-5-1-7.75A137.74,137.74,0,0,0,341,208.74a135.64,135.64,0,0,0-6.58-16.65c-1.23-2.46-2.36-4.82-3.6-6.94-.61-1.06-1.16-2.11-1.75-3.08l-1.72-2.78c-1.06-1.79-2.18-3.32-3.1-4.69-.47-.68-.89-1.33-1.31-1.9l-1.16-1.55-1.6-2.16-.41-.57q-.14-.19-.12-.21l.16.18.45.53,1.68,2.11,1.2,1.52c.43.57.86,1.21,1.35,1.88.94,1.36,2.08,2.88,3.17,4.66l1.75,2.77c.61,1,1.17,2,1.78,3.08,1.26,2.12,2.41,4.48,3.67,6.94a134.17,134.17,0,0,1,6.64,16.7,135.56,135.56,0,0,1,4.14,17.49c.39,2.74.8,5.33,1,7.78.1,1.23.25,2.41.31,3.55s.1,2.23.15,3.27c.13,2.09.07,4,.07,5.64,0,.83,0,1.6,0,2.31S347,250,347,250.56c-.07,1.13-.13,2-.17,2.69,0,.28,0,.51-.05.69A.92.92,0,0,1,346.71,254.18Z" style="fill:#fff"></path><path d="M361.16,254.83a.7.7,0,0,1-.05-.25c0-.2-.07-.44-.11-.74-.09-.69-.21-1.65-.37-2.86s-.33-2.75-.61-4.51-.53-3.75-.95-5.95c-.19-1.1-.4-2.25-.61-3.45s-.5-2.44-.76-3.72c-.5-2.58-1.18-5.3-1.86-8.17-1.46-5.72-3.27-12-5.5-18.4s-4.74-12.43-7.16-17.81c-1.26-2.68-2.42-5.23-3.64-7.56-.6-1.16-1.15-2.31-1.73-3.38s-1.13-2.1-1.67-3.08c-1-2-2.09-3.71-3-5.25s-1.67-2.85-2.33-3.91l-1.49-2.46-.38-.64a1,1,0,0,1-.11-.23s.06.06.16.2l.42.62,1.58,2.41c.68,1,1.51,2.33,2.41,3.86s2,3.25,3,5.22c.55,1,1.12,2,1.71,3.07s1.15,2.21,1.76,3.38c1.23,2.32,2.41,4.87,3.68,7.55,2.46,5.38,4.95,11.4,7.22,17.84s4,12.71,5.48,18.45c.67,2.88,1.33,5.61,1.81,8.2.26,1.29.53,2.53.73,3.74s.4,2.36.59,3.46c.39,2.2.62,4.21.87,6s.41,3.28.53,4.53.2,2.17.26,2.87l.06.75A.81.81,0,0,1,361.16,254.83Z" style="fill:#fff"></path><path d="M370.58,255.16a.77.77,0,0,1,0-.23c0-.18-.05-.4-.08-.67-.06-.63-.15-1.5-.25-2.59s-.23-2.5-.43-4.09-.37-3.41-.68-5.4-.59-4.19-1-6.52-.89-4.83-1.41-7.44c-1.12-5.22-2.53-10.91-4.3-16.81S358.6,200,356.64,195c-1-2.46-2-4.82-2.95-7s-1.9-4.17-2.77-6-1.71-3.44-2.43-4.88-1.37-2.65-1.92-3.64l-1.22-2.29-.31-.6c-.07-.14-.1-.21-.09-.22a.71.71,0,0,1,.14.19c.09.16.21.35.35.58l1.31,2.25c.57,1,1.25,2.17,2,3.6s1.64,3,2.51,4.85,1.87,3.79,2.83,6,2,4.51,3,7c2,5,4,10.5,5.8,16.4s3.17,11.63,4.27,16.86c.5,2.63,1,5.12,1.36,7.47s.7,4.54.95,6.54.44,3.83.61,5.42.27,3,.34,4.11.12,2,.15,2.6c0,.27,0,.49,0,.67A.82.82,0,0,1,370.58,255.16Z" style="fill:#fff"></path><path d="M378.68,237.72a9.4,9.4,0,0,1,.89,2.3,41.24,41.24,0,0,1,1.87,11.73,10.05,10.05,0,0,1-.13,2.47,13.18,13.18,0,0,1-.23-2.45c-.11-1.51-.31-3.59-.67-5.87s-.82-4.31-1.19-5.78A15.74,15.74,0,0,1,378.68,237.72Z" style="fill:#fff"></path><path d="M389.88,239.91a14.5,14.5,0,0,1,1.74,5.75,14.71,14.71,0,0,1-.23,6c-.17,0,.14-2.69-.29-6S389.73,240,389.88,239.91Z" style="fill:#fff"></path><path d="M368.29,171.44s.09.15.22.47.32.82.53,1.38c.45,1.2,1.06,3,1.76,5.14a178.41,178.41,0,0,1,4.63,17.32c1.47,6.86,2.39,13.14,2.89,17.71.25,2.28.42,4.13.5,5.41,0,.59.06,1.08.09,1.48a1.83,1.83,0,0,1,0,.51,1.91,1.91,0,0,1-.1-.51c-.05-.39-.11-.87-.18-1.46-.14-1.27-.37-3.12-.67-5.39-.59-4.54-1.56-10.8-3-17.64s-3.15-12.94-4.47-17.32c-.66-2.2-1.21-4-1.6-5.19-.18-.56-.32-1-.44-1.41A3,3,0,0,1,368.29,171.44Z" style="fill:#fff"></path><path d="M385.05,199a7,7,0,0,1-.47-1.34c-.3-1-.67-2.22-1.12-3.72-.95-3.14-2.27-7.47-3.83-12.22s-3.07-9-4.17-12.1l-1.3-3.66a7,7,0,0,1-.42-1.36,7.05,7.05,0,0,1,.61,1.29c.36.84.86,2.07,1.45,3.6,1.2,3.06,2.76,7.31,4.32,12.07s2.84,9.11,3.69,12.28c.43,1.58.75,2.87,1,3.76A8.59,8.59,0,0,1,385.05,199Z" style="fill:#fff"></path><path d="M380.45,155.09a8.74,8.74,0,0,1,.71,1.45c.43,1,1,2.34,1.72,4.07,1.4,3.45,3.19,8.27,4.91,13.69s3,10.4,3.87,14c.43,1.81.74,3.29.94,4.31a10.41,10.41,0,0,1,.26,1.6,8.78,8.78,0,0,1-.46-1.56c-.28-1.09-.65-2.53-1.09-4.26-.94-3.6-2.3-8.55-4-14s-3.46-10.24-4.76-13.72c-.64-1.68-1.16-3.06-1.56-4.12A10.56,10.56,0,0,1,380.45,155.09Z" style="fill:#fff"></path><path d="M399.9,187.19a6.24,6.24,0,0,1-.31-1.24c-.15-.8-.39-2-.71-3.38a99.59,99.59,0,0,0-3.13-10.94,94.58,94.58,0,0,0-4.43-10.49c-.64-1.31-1.18-2.36-1.56-3.08a6.72,6.72,0,0,1-.54-1.16,6.25,6.25,0,0,1,.72,1.06c.43.69,1,1.72,1.71,3a78.18,78.18,0,0,1,4.59,10.48,79.93,79.93,0,0,1,3,11c.27,1.44.46,2.61.55,3.43A7,7,0,0,1,399.9,187.19Z" style="fill:#fff"></path><path d="M379.05,160.22a9.23,9.23,0,0,0-6.68-1.84c0-.06.36-.26,1-.38a6.23,6.23,0,0,1,5,1.37C378.87,159.81,379.09,160.17,379.05,160.22Z" style="fill:#fff"></path><path d="M375.21,151.93c0,.14-.72.47-1.68.73s-1.78.37-1.81.23.71-.46,1.67-.73S375.17,151.8,375.21,151.93Z" style="fill:#fff"></path><path d="M345.67,162.71a20.88,20.88,0,0,0-2.78,2.2,21.28,21.28,0,0,0-2,2.94,6.31,6.31,0,0,1,4.76-5.14Z" style="fill:#fff"></path><path d="M344.58,154.29c.09.13-1.51,1.28-2.92,3.2s-2.07,3.78-2.22,3.73a8,8,0,0,1,1.8-4A8.21,8.21,0,0,1,344.58,154.29Z" style="fill:#fff"></path><path d="M309.59,218.37a8.82,8.82,0,0,1,.45-1.64c.33-1,.78-2.57,1.31-4.45a129.57,129.57,0,0,0,3.21-14.93,125.75,125.75,0,0,0,1.34-15.21c.05-2,.07-3.54.06-4.64a9.4,9.4,0,0,1,.06-1.7,12.33,12.33,0,0,1,.14,1.7c.07,1.09.11,2.68.11,4.64a106.07,106.07,0,0,1-4.57,30.24c-.58,1.88-1.08,3.39-1.47,4.41A11.28,11.28,0,0,1,309.59,218.37Z" style="fill:#fff"></path><path d="M309.77,222.27a3,3,0,0,1-.95,0c-.62,0-1.5-.11-2.59-.26a42.12,42.12,0,0,1-8.3-2.09,41.41,41.41,0,0,1-7.71-3.76,24.83,24.83,0,0,1-2.14-1.46,3.35,3.35,0,0,1-.73-.62c0-.07,1.17.69,3.06,1.77a49.34,49.34,0,0,0,15.88,5.79C308.43,222.05,309.78,222.19,309.77,222.27Z" style="fill:#fff"></path><path d="M326.78,194.21a5,5,0,0,1,.13.82c.07.55.18,1.34.25,2.38a66.13,66.13,0,0,1,.12,8.79,69.11,69.11,0,0,1-1.86,12.9,71,71,0,0,1-2.19,7.4,25.73,25.73,0,0,1-3.74,7.41,9,9,0,0,1-3.34,2.66A7,7,0,0,1,312,237c-2.72-.54-4.89-2.12-6.91-3.48l-10.71-7.39-7.21-5-1.94-1.39a5.91,5.91,0,0,1-.66-.51,4.46,4.46,0,0,1,.72.43l2,1.3,7.29,4.89c3.09,2.08,6.74,4.55,10.78,7.3,2,1.35,4.17,2.87,6.73,3.37a6.6,6.6,0,0,0,3.84-.42,8.56,8.56,0,0,0,3.14-2.52,25.31,25.31,0,0,0,3.66-7.26A72.69,72.69,0,0,0,325,219a71.46,71.46,0,0,0,2-12.81,73.69,73.69,0,0,0,0-8.76c0-1-.12-1.83-.15-2.38A4.34,4.34,0,0,1,326.78,194.21Z" style="fill:#fff"></path><path d="M432.19,228.92s-.09.09-.29.22a8.29,8.29,0,0,1-.89.53A14.05,14.05,0,0,1,427.4,231a21.72,21.72,0,0,1-12.46-1.17,44,44,0,0,1-10.8-6.47c-1.27-1-2.27-1.82-3-2.41a7.23,7.23,0,0,1-1-1,6.87,6.87,0,0,1,1.16.79l3.05,2.27a48,48,0,0,0,10.77,6.28,22.36,22.36,0,0,0,12.2,1.3A21.38,21.38,0,0,0,432.19,228.92Z" style="fill:#fff"></path><path d="M430.12,218.29a4,4,0,0,1-.95.69,19,19,0,0,1-2.85,1.43A21.09,21.09,0,0,1,406.16,218a18.82,18.82,0,0,1-2.44-2.07,4.48,4.48,0,0,1-.76-.89c.07-.07,1.19,1.17,3.41,2.65a21.81,21.81,0,0,0,19.82,2.36C428.69,219.15,430.07,218.2,430.12,218.29Z" style="fill:#fff"></path><path d="M273,207.68a5.58,5.58,0,0,1-.89,0l1-.57L255.43,203a3.3,3.3,0,0,0,2.69,3,20.4,20.4,0,0,1,3.44,1.18c-5.63-.3-11.21-.63-11.21-.63s-.73,1.35,1.28,2.42a54,54,0,0,0,6.9,2.53l-8.18,1a10.28,10.28,0,0,0,5.57,1.6c3.59.11,5.66,0,5.66,0l-7.95,3.24a9,9,0,0,0,5.77.9c3.06-.65,17.36-.7,17.36-.7Z" style="fill:#ffceb0"></path><rect x="155.49" y="184.92" width="108.88" height="44.22" style="fill:#fff"></rect><path d="M264.37,229.14s0-.27,0-.79,0-1.3,0-2.3c0-2,0-5-.05-8.81,0-7.64-.06-18.67-.1-32.32l.18.18-108.87.08h0l.26-.26c0,15.48,0,30.43,0,44.22l-.25-.25,78,.12,22.66.07,6.07,0,1.57,0h.55l-.52,0h-1.54l-6,0-22.6.06-78.2.12h-.25v-.25c0-13.79,0-28.74,0-44.22v-.26h.26l108.87.07h.19v.19c0,13.7-.08,24.77-.1,32.43,0,3.8,0,6.75-.05,8.77,0,1,0,1.74,0,2.26S264.37,229.14,264.37,229.14Z" style="fill:#7BCBDC"></path><rect x="164.74" y="195.05" width="26.3" height="26.3" style="fill:#7BCBDC"></rect><path d="M256.83,205.12c0,.09-13.53.17-30.22.17s-30.23-.08-30.23-.17,13.53-.17,30.23-.17S256.83,205,256.83,205.12Z" style="fill:#7BCBDC"></path><path d="M256.83,210.48c0,.09-13.53.17-30.22.17s-30.23-.08-30.23-.17,13.53-.18,30.23-.18S256.83,210.38,256.83,210.48Z" style="fill:#7BCBDC"></path><path d="M235.3,215.83a1.6,1.6,0,0,1-.4,0l-1.13,0-4.17,0-13.76.05L202.08,216l-4.17,0-1.13,0a1.6,1.6,0,0,1-.4,0,2.12,2.12,0,0,1,.4,0l1.13,0,4.17-.06,13.76-.05,13.76.05,4.17.06,1.13,0A2.12,2.12,0,0,1,235.3,215.83Z" style="fill:#7BCBDC"></path><path d="M288.13,212.54,276,203.65l-17-4.74s-.82.83,1.19,3.27,8.6,5.12,8.6,5.12a10.3,10.3,0,0,0-.57,3.91,9.28,9.28,0,0,0,9.1,7.45h1.09l2.39,5.42Z" style="fill:#ffceb0"></path><path d="M261,203c0-.06.79.46,2.08,1.16s3.11,1.56,5.11,2.57c.23.12.46.23.67.35l.18.09-.05.2a12,12,0,0,0-.13,5.09c.25,1.28.56,2,.49,2.06a4.94,4.94,0,0,1-.83-2,10.83,10.83,0,0,1,0-5.29l.13.29-.66-.34c-2-1-3.82-1.92-5.07-2.72A6.84,6.84,0,0,1,261,203Z" style="fill:#eb996e"></path><path d="M384.07,144.53a2.9,2.9,0,0,0,.28-1.68,1.4,1.4,0,0,0-1.12-1.17,2.34,2.34,0,0,0-1.34.45,23.45,23.45,0,0,1-8.34,2.84l-.1.12a1.33,1.33,0,0,0,0,1.31,2.79,2.79,0,0,0,1,1,6.55,6.55,0,0,0,9.67-2.84Z" style="fill:#7BCBDC"></path><path d="M352.73,125.56c-.87-4.54-2-9.25-4.91-12.79a14.38,14.38,0,0,0-19.89-2.13l-2.17,1.61a58.51,58.51,0,0,0-1.6,17.75c.21,3.47,2.11,6.95,4.4,9.57,1.1,1.26,2.6,2.17,3.5,3.59.8,1.25,1,2.78,1.66,4.12,2,4.28,8,5.7,12.24,3.67s6.88-6.63,7.66-11.3S353.62,130.21,352.73,125.56Z" style="fill:#e0e0e0"></path><path d="M349.17,97.75c-8.46.52-14.46-2.7-19,.54-1.94,1.37-10.37,6.74-10.24,8.74s3.36,3.62,8.53,4.64L371.54,109c5-1.65,7.94-3.64,7.82-5.63C379.11,99.26,365.59,96.74,349.17,97.75Z" style="fill:#7BCBDC"></path><g style="opacity:0.4"><path d="M331.25,111.36c-4.59-.91-7.57-2.35-7.57-4.12,0-4.93,11.4-7.33,26-8.23s26.54,1.35,26.76,5c.11,1.76-2.54,3.52-6.93,5"></path></g><path d="M369.06,107.56a20.16,20.16,0,0,0-22.35-18.39c-10.72,1.2-18.43,11-17.83,21.76.54,9.44,1.28,18.93,2,22.28,2.25,10.1,9,12.8,11.64,13.49a13.86,13.86,0,0,0,2.81.1.07.07,0,0,1,.07.07L345.6,159l26.25-2.19Z" style="fill:#ffceb0"></path><path d="M332.76,117.68a1.64,1.64,0,0,0,1.68,1.56,1.56,1.56,0,0,0,1.6-1.58,1.64,1.64,0,0,0-1.68-1.56A1.56,1.56,0,0,0,332.76,117.68Z" style="fill:#263238"></path><path d="M331.79,113.18c.22.21,1.41-.79,3.17-.89s3.12.7,3.3.47-.15-.48-.74-.85a4.48,4.48,0,0,0-2.65-.65,4.38,4.38,0,0,0-2.51,1C331.85,112.7,331.69,113.09,331.79,113.18Z" style="fill:#263238"></path><path d="M348.82,116.49A1.64,1.64,0,0,0,350.5,118a1.57,1.57,0,0,0,1.61-1.58,1.65,1.65,0,0,0-1.69-1.56A1.58,1.58,0,0,0,348.82,116.49Z" style="fill:#263238"></path><path d="M349.17,112.45c.22.2,1.41-.8,3.17-.9s3.12.7,3.3.47-.15-.47-.74-.85a4.56,4.56,0,0,0-2.65-.64,4.31,4.31,0,0,0-2.51,1C349.23,112,349.07,112.36,349.17,112.45Z" style="fill:#263238"></path><path d="M343.57,125.94a12,12,0,0,0-2.9-.34c-.46,0-.89-.08-1-.39a2.29,2.29,0,0,1,.21-1.35c.36-1.12.74-2.29,1.13-3.52,1.55-5,2.64-9.1,2.44-9.16s-1.62,3.94-3.17,8.94c-.38,1.24-.73,2.41-1.07,3.54a2.61,2.61,0,0,0-.13,1.78,1.14,1.14,0,0,0,.79.61,3.09,3.09,0,0,0,.77.06A11.57,11.57,0,0,0,343.57,125.94Z" style="fill:#263238"></path><path d="M345.42,146.8s6.85.14,15.07-5.51c0,0-2.14,9.18-15,8.77Z" style="fill:#eb996e"></path><path d="M344.57,130.15a3.2,3.2,0,0,1,2.78-1.36,2.93,2.93,0,0,1,2.08,1,1.85,1.85,0,0,1,.27,2.09,2.14,2.14,0,0,1-2.28.73,6.7,6.7,0,0,1-2.34-1.21,2,2,0,0,1-.54-.49.61.61,0,0,1,0-.66" style="fill:#eb996e"></path><path d="M348.84,126.84c-.29,0-.18,1.92-1.73,3.38s-3.61,1.38-3.61,1.65c0,.12.48.34,1.34.31a4.77,4.77,0,0,0,3-1.26,4.2,4.2,0,0,0,1.33-2.83C349.21,127.28,349,126.82,348.84,126.84Z" style="fill:#263238"></path><path d="M348.17,106.93c.2.47,1.95.13,4,.25s3.8.59,4.05.14c.11-.21-.21-.65-.92-1.07a6.69,6.69,0,0,0-3-.86,6.81,6.81,0,0,0-3.12.56C348.44,106.3,348.08,106.7,348.17,106.93Z" style="fill:#e0e0e0"></path><path d="M332.16,108.6c.34.38,1.53-.11,3-.22s2.72.1,3-.34c.11-.21-.11-.6-.67-.94a4.35,4.35,0,0,0-4.81.44C332.16,108,332,108.41,332.16,108.6Z" style="fill:#e0e0e0"></path><path d="M371.23,103.74a8.78,8.78,0,0,0-.57-3.18c-1-2.22-3.65-3.14-6-3.64-6.78-1.4-13.77-1.19-20.68-1l-2.71,1.83a11.31,11.31,0,0,0,8.6,4.31c2.18,0,4.62-.49,6.34.83,1.26,1,1.7,2.64,2.32,4.1.95,2.22,1.06,5,3.24,6.1,1.7.83,3,.45,4.27,1.85s1.71,3.72,1.87,5.71.52,5.13,2.36,5.89C369.85,119.32,371.61,111,371.23,103.74Z" style="fill:#e0e0e0"></path><path d="M323.86,104.84S327,87.1,327.35,86.23s4.82-8.84,16.6-11.75l9.84-.61s14.25,3.64,17,6.89,4.87,19.7,4.87,19.7l-28-4.31-18.49,5.73Z" style="fill:#7BCBDC"></path><path d="M347.05,72.27l-2.72.17a2.78,2.78,0,0,0-2.46,1.83,8.69,8.69,0,0,0-.46,2.81c0,3.07.59,24.1.59,24.1l12.3-1.31-2-25.91,4.25.68-.12-.76a2.27,2.27,0,0,0-.6-1.22h0a2.22,2.22,0,0,0-1.71-.68Z" style="fill:#7BCBDC"></path><path d="M327.43,106.38l.92-6.16L347.28,93l23.61,5.41.42,6.83S351.31,98.67,327.43,106.38Z" style="fill:#455a64"></path><path d="M330.13,98.29l-.77.84-6.21,5.26a89.47,89.47,0,0,1,25.7-5.72c13.29-.68,28.77,2.88,28.77,2.88l-9.13-4.76h0a15.18,15.18,0,0,0-11.07-4.14l-16.7.7A15.12,15.12,0,0,0,330.13,98.29Z" style="fill:#7BCBDC"></path><path d="M325.06,104.52s.12-.16.39-.39a7.79,7.79,0,0,1,1.29-.93A24.54,24.54,0,0,1,332.1,101,62.21,62.21,0,0,1,351,98.67c3.71,0,7.27,0,10.51.26a79.38,79.38,0,0,1,8.51,1.26c1.2.25,2.27.54,3.2.83a5.5,5.5,0,0,1,2.27,1.14,2.28,2.28,0,0,1,.72,1.45.89.89,0,0,1-.1.55,2.27,2.27,0,0,0-.81-1.79,5.45,5.45,0,0,0-2.19-1c-.93-.25-2-.49-3.19-.71-2.38-.42-5.28-.84-8.46-1.09s-6.74-.17-10.47-.21a67.36,67.36,0,0,0-18.79,2.06,27.65,27.65,0,0,0-5.36,2C325.67,104.06,325.12,104.59,325.06,104.52Z" style="fill:#263238"></path><path d="M327.46,106.18c-.92,5.63-6.87,14.88,2.5,19.84,0,0-.64-12,.05-16.75a9.59,9.59,0,0,1,1.27-4" style="fill:#e0e0e0"></path><path d="M382.43,122.29c-.68-1.2-1.74-2.18-2.22-3.47a15,15,0,0,1-.43-4.2,10.52,10.52,0,0,0-11.19-9.28l2.75,42.48c7.19-.44,13-9.77,13.46-16.25A19.81,19.81,0,0,0,382.43,122.29Z" style="fill:#e0e0e0"></path><path d="M373,142.21a4.59,4.59,0,0,1-4.29-.14,8.45,8.45,0,0,1-3.09-3.16,15,15,0,0,1-.83-13.78,22,22,0,0,1-5.59-20l10.32.29Z" style="fill:#e0e0e0"></path><path d="M323,103.31a2.2,2.2,0,0,0,.52-.31l1.44-1c1.28-.89,3.06-2.12,5.25-3.62l0,0,0,0,1.14-1.73a9.37,9.37,0,0,1,1.32-1.77,5.69,5.69,0,0,1,2-1.22,10,10,0,0,1,2.46-.42c3.47-.32,7.31-.51,11.33-.64,3.75-.12,7.33-.17,10.62-.2a7.14,7.14,0,0,1,2.33.22,5.63,5.63,0,0,1,1.94,1c1.06,1,2,2,3,2.87l0,0,0,0,6.74,2.67,1.85.7a3,3,0,0,0,.66.22,4.58,4.58,0,0,0-.63-.3L373.19,99l-6.68-2.81.05,0c-.92-.91-1.85-1.9-3-2.93a5.78,5.78,0,0,0-2.06-1.11A7.43,7.43,0,0,0,359.1,92c-3.29,0-6.88.06-10.63.17-4,.13-7.87.33-11.36.68a10,10,0,0,0-2.55.46,5.92,5.92,0,0,0-2.09,1.32,9.48,9.48,0,0,0-1.36,1.84c-.38.61-.76,1.19-1.11,1.75l0,0-5.17,3.74-1.39,1A3.21,3.21,0,0,0,323,103.31Z" style="fill:#263238"></path><path d="M353.73,92.23a3.1,3.1,0,0,0,0-.87c0-.55-.05-1.36-.11-2.35-.11-2-.3-4.71-.54-7.73-.12-1.51-.23-2.94-.34-4.26-.06-.65-.11-1.27-.17-1.86a.79.79,0,0,1,.79-.87l2.32.3a3.37,3.37,0,0,0,.87,0,3.32,3.32,0,0,0-.84-.22c-.55-.11-1.32-.27-2.33-.44a1.12,1.12,0,0,0-1.17,1.21c0,.59.08,1.21.13,1.86.09,1.32.2,2.76.31,4.26.23,3,.47,5.75.66,7.73.1,1,.18,1.78.25,2.34A3.43,3.43,0,0,0,353.73,92.23Z" style="fill:#263238"></path><path d="M341.78,92.72a13,13,0,0,0,.22-2.58c.05-1.59,0-3.8-.05-6.23s-.15-4.63-.23-6.23a15.13,15.13,0,0,0-.22-2.57,15.19,15.19,0,0,0-.09,2.58c0,1.6,0,3.8.11,6.23s.12,4.49.17,6.22A18.36,18.36,0,0,0,341.78,92.72Z" style="fill:#263238"></path><path d="M390,126.57a5.63,5.63,0,0,0-4.42-4.44,3.23,3.23,0,0,0-1.29-4.32c-1-.53-2.3-.45-3.33-1a5,5,0,0,1-2.19-3.24,21.25,21.25,0,0,0-1.09-3.88,3.5,3.5,0,0,0-3.1-2.19l-7,28.44a10.85,10.85,0,0,0,19,4.59c1.91-2.32,2.7-6,.78-8.29A5.63,5.63,0,0,0,390,126.57Z" style="fill:#e0e0e0"></path><path d="M382.37,117.54c-.06,0-.11-.42-.41-1.11a4.65,4.65,0,0,0-2.16-2.18,12.75,12.75,0,0,0-4.56-1.07c-1.79-.17-3.79-.16-5.89-.52a10,10,0,0,1-3-1A13.26,13.26,0,0,1,364,110a31.82,31.82,0,0,1-3.34-3.51c-.88-1.05-1.57-1.92-2-2.53a4.77,4.77,0,0,1-.69-1,31,31,0,0,1,3.05,3.22,38.34,38.34,0,0,0,3.38,3.37,13.46,13.46,0,0,0,2.27,1.58,9.62,9.62,0,0,0,2.81.88c2,.36,4,.37,5.83.57a12.45,12.45,0,0,1,4.71,1.25,4.61,4.61,0,0,1,2.17,2.47A2.47,2.47,0,0,1,382.37,117.54Z" style="fill:#fff"></path><path d="M389.37,129.2c-.06,0-.15-.56-.58-1.51a9.55,9.55,0,0,0-2.69-3.38,16.81,16.81,0,0,0-5.74-3c-2.34-.75-5-1.24-7.77-2.15a19.87,19.87,0,0,1-7-4.07,34.25,34.25,0,0,1-4.46-4.9c-1.14-1.5-2-2.77-2.56-3.65a8.77,8.77,0,0,1-.83-1.4,8.27,8.27,0,0,1,1,1.27c.63.84,1.52,2.06,2.7,3.51a35.53,35.53,0,0,0,4.48,4.75,20,20,0,0,0,6.86,3.92c2.68.9,5.38,1.4,7.75,2.2a16.32,16.32,0,0,1,5.84,3.15A9.23,9.23,0,0,1,389,127.6a5.6,5.6,0,0,1,.32,1.18C389.38,129.06,389.39,129.2,389.37,129.2Z" style="fill:#fff"></path><path d="M324.55,121.7a8.34,8.34,0,0,1,.32-2.4,43.79,43.79,0,0,1,1.58-5.6,43.17,43.17,0,0,1,2.27-5.36,8.3,8.3,0,0,1,1.25-2.07c.16.08-1.47,3.37-3,7.63S324.73,121.73,324.55,121.7Z" style="fill:#fff"></path><path d="M356.93,114c.13,0-.1.68-.81,1s-1.31,0-1.25-.15.53-.12,1.06-.33S356.8,113.89,356.93,114Z" style="fill:#eb996e"></path><path d="M357,116.06c-.08.13-.59,0-1.23-.16s-1.18-.12-1.21-.26.56-.38,1.3-.25S357.07,116,357,116.06Z" style="fill:#eb996e"></path><path d="M352.11,126.46c-.13.08-.53-.36-1.18-.63s-1.23-.29-1.26-.44.67-.39,1.47,0S352.24,126.4,352.11,126.46Z" style="fill:#eb996e"></path><path d="M332,117.35c0,.13-.43.12-.87,0s-.76-.38-.71-.52.43-.13.87,0S332,117.21,332,117.35Z" style="fill:#eb996e"></path><path d="M331.32,118.29c.08.12-.13.39-.52.46s-.68-.11-.64-.25.28-.21.55-.26S331.24,118.17,331.32,118.29Z" style="fill:#eb996e"></path><path d="M364.14,155a23,23,0,0,1,.16-4.83,3.64,3.64,0,0,0-.17-1.72,11.21,11.21,0,0,1-.69-1.39,1.35,1.35,0,0,1,.13-1.11c.17-.23.34-.25.35-.23s-.09.13-.17.33a1.29,1.29,0,0,0,0,.9c.14.37.49.74.77,1.3a3.8,3.8,0,0,1,.26,2A22,22,0,0,1,364.14,155Z" style="fill:#eb996e"></path></g></svg>